<svg xmlns="http://www.w3.org/2000/svg" xmlns:xlink="http://www.w3.org/1999/xlink" viewBox="0 0 3395.61 317.83"><defs><style>.cls-1{fill:none;}.cls-2{isolation:isolate;}.cls-3{clip-path:url(#clip-path);}.cls-4{opacity:0.3;mix-blend-mode:multiply;}.cls-5{opacity:0;}.cls-6{fill:#fff;}.cls-7{opacity:0.02;}.cls-8{fill:#f9f9f9;}.cls-9{opacity:0.05;}.cls-10{fill:#f3f3f3;}.cls-11{opacity:0.07;}.cls-12{fill:#ececec;}.cls-13{opacity:0.1;}.cls-14{fill:#e6e6e6;}.cls-15{opacity:0.12;}.cls-16{fill:#e0e0e0;}.cls-17{opacity:0.15;}.cls-18{fill:#dadada;}.cls-19{opacity:0.17;}.cls-20{fill:#d3d3d3;}.cls-21{opacity:0.2;}.cls-22{fill:#cdcdcd;}.cls-23{opacity:0.22;}.cls-24{fill:#c7c7c7;}.cls-25{opacity:0.24;}.cls-26{fill:#c1c1c1;}.cls-27{opacity:0.27;}.cls-28{fill:#bbb;}.cls-29{opacity:0.29;}.cls-30{fill:#b4b4b4;}.cls-31{opacity:0.32;}.cls-32{fill:#aeaeae;}.cls-33{opacity:0.34;}.cls-34{fill:#a8a8a8;}.cls-35{opacity:0.37;}.cls-36{fill:#a2a2a2;}.cls-37{opacity:0.39;}.cls-38{fill:#9b9b9b;}.cls-39{opacity:0.41;}.cls-40{fill:#959595;}.cls-41{opacity:0.44;}.cls-42{fill:#8f8f8f;}.cls-43{opacity:0.46;}.cls-44{fill:#898989;}.cls-45{opacity:0.49;}.cls-46{fill:#838383;}.cls-47{opacity:0.51;}.cls-48{fill:#7c7c7c;}.cls-49{opacity:0.54;}.cls-50{fill:#767676;}.cls-51{opacity:0.56;}.cls-52{fill:#707070;}.cls-53{opacity:0.59;}.cls-54{fill:#6a6a6a;}.cls-55{opacity:0.61;}.cls-56{fill:#646464;}.cls-57{opacity:0.63;}.cls-58{fill:#5d5d5d;}.cls-59{opacity:0.66;}.cls-60{fill:#575757;}.cls-61{opacity:0.68;}.cls-62{fill:#515151;}.cls-63{opacity:0.71;}.cls-64{fill:#4b4b4b;}.cls-65{opacity:0.73;}.cls-66{fill:#444;}.cls-67{opacity:0.76;}.cls-68{fill:#3e3e3e;}.cls-69{opacity:0.78;}.cls-70{fill:#383838;}.cls-71{opacity:0.8;}.cls-72{fill:#323232;}.cls-73{opacity:0.83;}.cls-74{fill:#2c2c2c;}.cls-75{opacity:0.85;}.cls-76{fill:#252525;}.cls-77{opacity:0.88;}.cls-78{fill:#1f1f1f;}.cls-79{opacity:0.9;}.cls-80{fill:#191919;}.cls-81{opacity:0.93;}.cls-82{fill:#131313;}.cls-83{opacity:0.95;}.cls-84{fill:#0c0c0c;}.cls-85{opacity:0.98;}.cls-86{fill:#060606;}.cls-87{fill:#1d263b;}</style><clipPath id="clip-path" transform="translate(0 -111.72)"><rect class="cls-1" width="3395.61" height="566.93"/></clipPath></defs><g class="cls-2"><g id="_ÎÓÈ_1" data-name="—ÎÓÈ_1"><g class="cls-3"><g class="cls-4"><g class="cls-5"><path class="cls-6" d="M2533.75,183.19c20.42,0,36.41,13.13,36.41,29.89,0,16.06-13.47,24.15-26.5,32-7.06,4.24-14.37,8.63-19.92,14.33-17.13,17.62-23.5,35.39-23.5,65.57,0,7.52,1.49,10.66,10.67,10.66h38.69c9.75,0,10.67-1.88,10.67-10.66,0-28.9,20.92-43.25,37.74-54.79,18.7-13.28,38.71-30,38.71-59.89,0-59.83-55.72-81.06-103.43-81.06-87.85,0-101.74,66.91-103.91,87.8,0,10,.52,10,3.68,10h46.62c7.47,0,8.8-3.18,10.26-11l.07-.29C2494.22,199.54,2509.38,183.19,2533.75,183.19Zm15.85,160.93h-38.69c-17.18,0-19.17-10.94-19.17-19.16,0-32.28,7.26-52.32,25.91-71.5,6.31-6.49,14.1-11.17,21.64-15.69,12-7.22,22.37-13.44,22.37-24.69,0-12-12.26-21.39-27.91-21.39-22.55,0-32.89,16.31-35.48,26.05a46.74,46.74,0,0,1-1.82,7c-1.52,4.71-6.58,8.28-6.58,8.28a19.36,19.36,0,0,1-10.19,2.47h-46.62c-12.18,0-12.18-9.93-12.18-18.7l0-.43c1.4-13.79,6.7-40.21,26.49-62.15,20-22.24,49-33.51,85.9-33.51,29.82,0,57.13,7.6,76.9,21.39,22.92,16,35,39.57,35,68.17,0,36.78-27.55,56.35-42.35,66.86-16,11-34.1,23.4-34.1,47.82C2568.77,338.93,2563.57,344.12,2549.6,344.12Z" transform="translate(0 -111.72)"/><path class="cls-6" d="M3395.61,429l-812.37,0A19.28,19.28,0,0,1,2564,409.71V373c0-8-2.73-9.26-9.26-9.26H2503c-6.53,0-9.26,1.28-9.26,9.26v36.74A19.28,19.28,0,0,1,2474.47,429L0,429.55V420l2474.47.49a10.76,10.76,0,0,0,10.74-10.75V373c0-12,5.82-17.77,17.77-17.77h51.75c11.95,0,17.77,5.81,17.77,17.77v36.74a10.76,10.76,0,0,0,10.74,10.75l812.37.08Z" transform="translate(0 -111.72)"/></g><g class="cls-7"><path class="cls-8" d="M2534,183c20.42,0,36.41,13.13,36.41,29.89,0,16.06-13.47,24.15-26.5,32-7.06,4.24-14.37,8.63-19.92,14.33-17.13,17.62-23.5,35.39-23.5,65.57,0,7.52,1.48,10.66,10.67,10.66h38.69c9.75,0,10.66-1.88,10.66-10.66,0-28.9,21-43.11,37.74-54.79,18.81-13.13,38.72-30,38.72-59.89,0-59.83-55.72-81.06-103.43-81.06-87.85,0-101.74,66.91-103.91,87.8,0,10,.52,10,3.68,10h46.62c7.47,0,8.8-3.18,10.26-11l.07-.29C2494.44,199.32,2509.6,183,2534,183Zm15.85,160.94h-38.69C2494,343.91,2492,333,2492,324.74c0-32.28,7.26-52.32,25.91-71.5,6.31-6.49,14.1-11.17,21.64-15.69,12-7.22,22.37-13.44,22.37-24.69,0-12-12.26-21.39-27.91-21.39-22.55,0-32.89,16.31-35.48,26.05a46.44,46.44,0,0,1-1.82,7c-1.52,4.71-6.58,8.28-6.58,8.28a19.36,19.36,0,0,1-10.19,2.47h-46.62c-12.18,0-12.18-9.93-12.18-18.7l0-.43c1.4-13.79,6.7-40.21,26.48-62.15,20.05-22.24,49-33.51,85.91-33.51,29.81,0,57.13,7.6,76.9,21.39,22.92,16,35,39.57,35,68.17,0,36.78-27.46,56.47-42.35,66.86-15.92,11.12-34.1,23.4-34.1,47.82C2569,338.71,2563.79,343.91,2549.82,343.91Z" transform="translate(0 -111.72)"/><path class="cls-8" d="M3395.61,428.78l-812.15,0a19.28,19.28,0,0,1-19.25-19.25V372.75c0-8-2.73-9.26-9.26-9.26H2503.2c-6.53,0-9.26,1.28-9.26,9.26v36.74a19.28,19.28,0,0,1-19.25,19.25L0,429.31v-9.54l2474.69.47a10.76,10.76,0,0,0,10.74-10.75V372.75c0-12,5.82-17.77,17.77-17.77H2555c12,0,17.77,5.81,17.77,17.77v36.74a10.76,10.76,0,0,0,10.74,10.75l812.15.07Z" transform="translate(0 -111.72)"/></g><g class="cls-9"><path class="cls-10" d="M2534.19,182.75c20.42,0,36.41,13.13,36.41,29.89,0,16.06-13.47,24.15-26.5,32-7.06,4.24-14.37,8.63-19.92,14.33-17.13,17.62-23.5,35.39-23.5,65.57,0,7.52,1.48,10.66,10.67,10.66H2550c9.75,0,10.66-1.88,10.66-10.66,0-28.89,21-43.11,37.74-54.79,18.81-13.13,38.72-30,38.72-59.89,0-59.83-55.72-81.06-103.43-81.06-87.85,0-101.74,66.91-103.91,87.81,0,10,.52,10,3.68,10h46.62c7.47,0,8.8-3.18,10.26-11l.07-.29C2494.66,199.1,2509.82,182.75,2534.19,182.75ZM2550,343.69h-38.69c-17.18,0-19.17-10.94-19.17-19.17,0-32.28,7.26-52.32,25.91-71.49,6.31-6.5,14.1-11.18,21.63-15.7,12-7.22,22.38-13.44,22.38-24.69,0-12-12.26-21.39-27.91-21.39-22.55,0-32.89,16.31-35.48,26.05a46.44,46.44,0,0,1-1.82,7c-1.52,4.71-6.58,8.28-6.58,8.28a19.36,19.36,0,0,1-10.19,2.47H2433.5c-12.18,0-12.18-9.93-12.18-18.7l0-.43c1.4-13.79,6.7-40.21,26.48-62.15,20-22.23,49-33.51,85.91-33.51,29.81,0,57.12,7.6,76.9,21.39,22.92,16,35,39.57,35,68.17,0,36.78-27.46,56.47-42.35,66.87-15.92,11.11-34.1,23.39-34.1,47.81C2569.21,338.49,2564,343.69,2550,343.69Z" transform="translate(0 -111.72)"/><path class="cls-10" d="M3395.61,428.57l-811.93-.05a19.27,19.27,0,0,1-19.25-19.25V372.53c0-8-2.73-9.26-9.26-9.26h-51.75c-6.53,0-9.26,1.29-9.26,9.26v36.74a19.27,19.27,0,0,1-19.25,19.25L0,429.08v-9.52l2474.91.46a10.76,10.76,0,0,0,10.74-10.75V372.53c0-12,5.81-17.77,17.77-17.77h51.75c11.95,0,17.76,5.81,17.76,17.77v36.74A10.77,10.77,0,0,0,2583.68,420l811.93.06Z" transform="translate(0 -111.72)"/></g><g class="cls-11"><path class="cls-12" d="M2534.41,182.53c20.42,0,36.41,13.13,36.41,29.89,0,16.06-13.47,24.15-26.5,32-7.07,4.24-14.37,8.63-19.92,14.33-17.13,17.62-23.5,35.39-23.5,65.57,0,7.52,1.48,10.66,10.67,10.66h38.69c9.74,0,10.66-1.88,10.66-10.66,0-28.89,21-43.11,37.74-54.79,18.81-13.13,38.72-30,38.72-59.88,0-59.84-55.72-81.06-103.43-81.06-87.85,0-101.74,66.9-103.91,87.8,0,10,.52,10,3.68,10h46.62c7.46,0,8.8-3.18,10.26-11l.07-.29C2494.88,198.88,2510,182.53,2534.41,182.53Zm15.85,160.94h-38.69c-17.19,0-19.17-10.94-19.17-19.17,0-32.28,7.26-52.32,25.91-71.49,6.31-6.5,14.1-11.18,21.63-15.7,12-7.21,22.38-13.44,22.38-24.69,0-12-12.26-21.39-27.91-21.39-22.55,0-32.89,16.31-35.48,26.05a46.44,46.44,0,0,1-1.82,7c-1.53,4.71-6.58,8.28-6.58,8.28a19.27,19.27,0,0,1-10.19,2.47h-46.62c-12.18,0-12.18-9.93-12.18-18.7l0-.43c1.4-13.79,6.7-40.21,26.48-62.15,20.05-22.23,49-33.51,85.91-33.51,29.81,0,57.12,7.6,76.9,21.39,22.92,16,35,39.57,35,68.18,0,36.77-27.46,56.46-42.35,66.86-15.92,11.11-34.1,23.39-34.1,47.81C2569.43,338.27,2564.23,343.47,2550.26,343.47Z" transform="translate(0 -111.72)"/><path class="cls-12" d="M3395.61,428.36l-811.71-.06a19.27,19.27,0,0,1-19.25-19.25V372.31c0-8-2.73-9.26-9.26-9.26h-51.75c-6.53,0-9.26,1.29-9.26,9.26v36.74a19.27,19.27,0,0,1-19.26,19.25L0,428.84v-9.49l2475.12.45a10.76,10.76,0,0,0,10.75-10.75V372.31c0-11.95,5.81-17.77,17.77-17.77h51.75c12,0,17.76,5.82,17.76,17.77v36.74a10.77,10.77,0,0,0,10.75,10.75l811.71.06Z" transform="translate(0 -111.72)"/></g><g class="cls-13"><path class="cls-14" d="M2534.63,182.31c20.42,0,36.41,13.13,36.41,29.89,0,16.06-13.47,24.15-26.5,32-7.07,4.24-14.37,8.63-19.92,14.33-17.13,17.62-23.5,35.39-23.5,65.57,0,7.52,1.48,10.66,10.67,10.66h38.69c9.74,0,10.66-1.88,10.66-10.66,0-28.89,21-43.11,37.74-54.79,18.81-13.13,38.72-30,38.72-59.88,0-59.83-55.72-81.06-103.43-81.06-87.85,0-101.74,66.9-103.91,87.8,0,10,.51,10,3.68,10h46.62c7.46,0,8.8-3.18,10.26-11l.07-.29C2495.1,198.66,2510.26,182.31,2534.63,182.31Zm15.85,160.94h-38.69c-17.19,0-19.17-10.94-19.17-19.17,0-32.28,7.26-52.32,25.91-71.49,6.31-6.5,14.1-11.18,21.63-15.7,12-7.21,22.38-13.44,22.38-24.69,0-12-12.26-21.39-27.91-21.39-22.55,0-32.89,16.31-35.48,26.05a46.44,46.44,0,0,1-1.82,7c-1.53,4.71-6.58,8.28-6.58,8.28a19.27,19.27,0,0,1-10.19,2.47h-46.62c-12.18,0-12.18-9.93-12.18-18.7l0-.43c1.4-13.79,6.7-40.21,26.48-62.15,20-22.23,48.95-33.51,85.91-33.51,29.81,0,57.12,7.6,76.9,21.4,22.92,16,35,39.56,35,68.17,0,36.77-27.46,56.46-42.35,66.86-15.92,11.11-34.1,23.39-34.1,47.81C2569.65,338.05,2564.45,343.25,2550.48,343.25Z" transform="translate(0 -111.72)"/><path class="cls-14" d="M3395.61,428.16l-811.49-.08a19.27,19.27,0,0,1-19.25-19.25V372.09c0-8-2.73-9.26-9.26-9.26h-51.75c-6.53,0-9.26,1.29-9.26,9.26v36.74a19.27,19.27,0,0,1-19.26,19.25L0,428.61v-9.46l2475.34.43a10.76,10.76,0,0,0,10.75-10.75V372.09c0-11.95,5.81-17.76,17.77-17.76h51.75c11.95,0,17.76,5.81,17.76,17.76v36.74a10.77,10.77,0,0,0,10.75,10.75l811.49.05Z" transform="translate(0 -111.72)"/></g><g class="cls-15"><path class="cls-16" d="M2534.85,182.09c20.42,0,36.41,13.13,36.41,29.89,0,16.06-13.47,24.15-26.5,32-7.07,4.24-14.37,8.63-19.92,14.34-17.13,17.61-23.5,35.38-23.5,65.56,0,7.52,1.48,10.66,10.67,10.66h38.69c9.74,0,10.66-1.88,10.66-10.66,0-28.89,21-43.11,37.74-54.79,18.81-13.13,38.72-30,38.72-59.88,0-59.83-55.72-81.06-103.43-81.06-87.85,0-101.74,66.9-103.91,87.8,0,10,.51,10,3.68,10h46.62c7.46,0,8.8-3.18,10.26-11l.06-.29C2495.32,198.44,2510.48,182.09,2534.85,182.09ZM2550.7,343H2512c-17.19,0-19.17-10.94-19.17-19.17,0-32.28,7.26-52.32,25.9-71.49,6.32-6.5,14.11-11.18,21.64-15.7,12-7.21,22.38-13.44,22.38-24.69,0-12-12.26-21.39-27.91-21.39-22.55,0-32.89,16.31-35.48,26a46.44,46.44,0,0,1-1.82,7c-1.53,4.71-6.58,8.28-6.58,8.28a19.27,19.27,0,0,1-10.19,2.47h-46.62c-12.18,0-12.18-9.93-12.18-18.7l0-.43c1.4-13.79,6.7-40.21,26.48-62.15,20.05-22.23,48.95-33.51,85.91-33.51,29.81,0,57.12,7.6,76.9,21.4,22.92,16,35,39.56,35,68.17,0,36.77-27.46,56.46-42.35,66.86-15.93,11.12-34.1,23.4-34.1,47.81C2569.87,337.83,2564.67,343,2550.7,343Z" transform="translate(0 -111.72)"/><path class="cls-16" d="M3395.61,428l-811.27-.09a19.27,19.27,0,0,1-19.25-19.25V371.87c0-8-2.73-9.26-9.26-9.26h-51.75c-6.53,0-9.26,1.29-9.26,9.26v36.74a19.27,19.27,0,0,1-19.26,19.25L0,428.38v-9.44l2475.56.42a10.76,10.76,0,0,0,10.75-10.75V371.87c0-11.95,5.81-17.76,17.77-17.76h51.75c12,0,17.76,5.81,17.76,17.76v36.74a10.76,10.76,0,0,0,10.75,10.75l811.27,0Z" transform="translate(0 -111.72)"/></g><g class="cls-17"><path class="cls-18" d="M2535.07,181.87c20.42,0,36.41,13.13,36.41,29.89,0,16.06-13.47,24.15-26.5,32-7.07,4.24-14.38,8.63-19.92,14.34-17.13,17.61-23.5,35.38-23.5,65.56,0,7.52,1.48,10.66,10.66,10.66h38.7c9.74,0,10.66-1.88,10.66-10.66,0-28.89,21-43.11,37.74-54.79,18.81-13.13,38.72-30,38.72-59.88,0-59.83-55.72-81.06-103.43-81.06-87.85,0-101.74,66.9-103.91,87.8,0,10,.51,10,3.68,10H2481c7.46,0,8.8-3.18,10.26-11l.06-.29C2495.54,198.22,2510.7,181.87,2535.07,181.87Zm15.85,160.94h-38.7c-17.18,0-19.16-10.94-19.16-19.17,0-32.28,7.26-52.32,25.9-71.49,6.32-6.5,14.11-11.18,21.64-15.7,12-7.21,22.38-13.44,22.38-24.69,0-12-12.26-21.39-27.91-21.39-22.55,0-32.89,16.31-35.48,26a46.44,46.44,0,0,1-1.82,7c-1.53,4.71-6.58,8.28-6.58,8.28A19.26,19.26,0,0,1,2481,234.2h-46.62c-12.18,0-12.18-9.94-12.18-18.71l0-.43c1.4-13.79,6.7-40.2,26.48-62.15,20.05-22.23,49-33.51,85.91-33.51,29.81,0,57.12,7.6,76.9,21.4,22.92,16,35,39.56,35,68.17,0,36.77-27.46,56.47-42.35,66.86-15.93,11.12-34.1,23.4-34.1,47.81C2570.09,337.61,2564.89,342.81,2550.92,342.81Z" transform="translate(0 -111.72)"/><path class="cls-18" d="M3395.61,427.75l-811.05-.11a19.27,19.27,0,0,1-19.25-19.25V371.65c0-8-2.73-9.26-9.26-9.26H2504.3c-6.53,0-9.26,1.29-9.26,9.26v36.74a19.27,19.27,0,0,1-19.26,19.25L0,428.14v-9.4l2475.78.4a10.76,10.76,0,0,0,10.75-10.75V371.65c0-11.95,5.81-17.76,17.77-17.76h51.75c11.95,0,17.76,5.81,17.76,17.76v36.74a10.76,10.76,0,0,0,10.75,10.75l811.05,0Z" transform="translate(0 -111.72)"/></g><g class="cls-19"><path class="cls-20" d="M2535.29,181.65c20.42,0,36.41,13.13,36.41,29.89,0,16.06-13.47,24.15-26.5,32-7.07,4.24-14.38,8.63-19.92,14.34-17.13,17.61-23.5,35.38-23.5,65.56,0,7.52,1.48,10.66,10.66,10.66h38.7c9.74,0,10.66-1.88,10.66-10.66,0-28.89,21-43.11,37.74-54.78,18.81-13.14,38.72-30,38.72-59.89,0-59.83-55.72-81.06-103.43-81.06-87.85,0-101.74,66.9-103.91,87.8,0,10,.51,10,3.68,10h46.62c7.46,0,8.8-3.18,10.26-11l.06-.29C2495.76,198,2510.92,181.65,2535.29,181.65Zm15.85,160.94h-38.7c-17.18,0-19.16-10.94-19.16-19.17,0-32.28,7.26-52.32,25.9-71.49,6.32-6.5,14.11-11.18,21.64-15.7,12-7.21,22.38-13.44,22.38-24.69,0-12-12.26-21.39-27.91-21.39-22.55,0-32.89,16.31-35.48,26a46.44,46.44,0,0,1-1.82,7c-1.53,4.71-6.58,8.28-6.58,8.28a19.29,19.29,0,0,1-10.19,2.48H2434.6c-12.18,0-12.18-9.94-12.18-18.71l0-.43c1.4-13.79,6.7-40.2,26.48-62.15,20-22.23,48.95-33.51,85.91-33.51,29.81,0,57.12,7.6,76.9,21.4,22.92,16,35,39.56,35,68.17,0,36.78-27.46,56.47-42.35,66.86-15.93,11.12-34.1,23.4-34.1,47.81C2570.31,337.39,2565.11,342.59,2551.14,342.59Z" transform="translate(0 -111.72)"/><path class="cls-20" d="M3395.61,427.54l-810.83-.12a19.27,19.27,0,0,1-19.25-19.25V371.43c0-8-2.73-9.26-9.26-9.26h-51.75c-6.53,0-9.27,1.29-9.27,9.26v36.74A19.26,19.26,0,0,1,2476,427.42L0,427.91v-9.38l2476,.39a10.76,10.76,0,0,0,10.75-10.75V371.43c0-11.95,5.81-17.76,17.77-17.76h51.75c11.95,0,17.76,5.81,17.76,17.76v36.74a10.76,10.76,0,0,0,10.75,10.75l810.83,0Z" transform="translate(0 -111.72)"/></g><g class="cls-21"><path class="cls-22" d="M2535.51,181.43c20.42,0,36.41,13.13,36.41,29.89,0,16.06-13.47,24.15-26.5,32-7.07,4.24-14.38,8.63-19.92,14.34C2508.37,275.25,2502,293,2502,323.2c0,7.52,1.48,10.67,10.66,10.67h38.7c9.74,0,10.66-1.89,10.66-10.67,0-28.89,21-43.11,37.74-54.78,18.81-13.14,38.72-30,38.72-59.89,0-59.83-55.72-81.06-103.44-81.06-87.84,0-101.73,66.91-103.9,87.8,0,10,.51,10,3.68,10h46.62c7.46,0,8.8-3.18,10.26-11l.06-.29C2496,197.78,2511.14,181.43,2535.51,181.43Zm15.85,160.94h-38.7c-17.18,0-19.17-10.94-19.17-19.17,0-32.28,7.27-52.32,25.91-71.49,6.32-6.5,14.11-11.18,21.64-15.7,12-7.21,22.38-13.44,22.38-24.69,0-12-12.26-21.39-27.91-21.39-22.56,0-32.89,16.31-35.48,26a45.56,45.56,0,0,1-1.83,7c-1.52,4.71-6.57,8.28-6.57,8.28a19.29,19.29,0,0,1-10.19,2.48h-46.62c-12.18,0-12.18-9.94-12.18-18.71l0-.43c1.4-13.79,6.7-40.2,26.48-62.15,20.05-22.23,49-33.51,85.9-33.51,29.82,0,57.13,7.6,76.91,21.4,22.92,16,35,39.56,35,68.17,0,36.78-27.47,56.47-42.35,66.86-15.93,11.12-34.1,23.4-34.1,47.81C2570.53,337.17,2565.33,342.37,2551.36,342.37Z" transform="translate(0 -111.72)"/><path class="cls-22" d="M3395.61,427.33,2585,427.2A19.26,19.26,0,0,1,2565.75,408V371.21c0-8-2.73-9.26-9.26-9.26h-51.75c-6.54,0-9.27,1.29-9.27,9.26V408a19.26,19.26,0,0,1-19.25,19.25L0,427.68v-9.36l2476.22.38A10.76,10.76,0,0,0,2487,408V371.21c0-11.95,5.81-17.76,17.77-17.76h51.75c12,0,17.76,5.81,17.76,17.76V408A10.76,10.76,0,0,0,2585,418.7l810.61,0Z" transform="translate(0 -111.72)"/></g><g class="cls-23"><path class="cls-24" d="M2535.73,181.21c20.42,0,36.41,13.13,36.41,29.89,0,16.06-13.47,24.15-26.5,32-7.07,4.24-14.38,8.63-19.92,14.34-17.13,17.61-23.5,35.38-23.5,65.56,0,7.52,1.48,10.67,10.66,10.67h38.7c9.74,0,10.66-1.89,10.66-10.67,0-28.89,21-43.11,37.74-54.78,18.81-13.14,38.71-30,38.71-59.89,0-59.83-55.71-81.06-103.43-81.06-87.84,0-101.73,66.91-103.9,87.8,0,10,.51,10,3.68,10h46.61c7.47,0,8.81-3.18,10.27-11l.06-.29C2496.19,197.56,2511.36,181.21,2535.73,181.21Zm15.85,160.94h-38.7c-17.18,0-19.17-10.94-19.17-19.17,0-32.28,7.27-52.32,25.91-71.49,6.32-6.5,14.11-11.18,21.64-15.7,12-7.21,22.38-13.44,22.38-24.69,0-12-12.26-21.39-27.91-21.39-22.56,0-32.89,16.31-35.48,26a45.56,45.56,0,0,1-1.83,7c-1.52,4.71-6.57,8.28-6.57,8.28a19.3,19.3,0,0,1-10.2,2.48H2435c-12.18,0-12.18-9.94-12.18-18.71l0-.43c1.4-13.79,6.7-40.2,26.48-62.15,20-22.23,48.95-33.51,85.9-33.51,29.82,0,57.13,7.6,76.9,21.4,22.92,16,35,39.56,35,68.17,0,36.78-27.47,56.47-42.35,66.86-15.93,11.12-34.11,23.4-34.11,47.81C2570.74,337,2565.55,342.15,2551.58,342.15Z" transform="translate(0 -111.72)"/><path class="cls-24" d="M3395.61,427.13,2585.22,427A19.27,19.27,0,0,1,2566,407.73V371c0-8-2.73-9.26-9.26-9.26H2505c-6.54,0-9.27,1.29-9.27,9.26v36.74A19.27,19.27,0,0,1,2476.44,427L0,427.44v-9.32l2476.44.36a10.76,10.76,0,0,0,10.75-10.75V371c0-11.95,5.81-17.76,17.77-17.76h51.75c11.95,0,17.76,5.81,17.76,17.76v36.74a10.76,10.76,0,0,0,10.75,10.75l810.39,0Z" transform="translate(0 -111.72)"/></g><g class="cls-25"><path class="cls-26" d="M2536,181c20.42,0,36.41,13.13,36.41,29.9,0,16.05-13.47,24.14-26.5,32-7.07,4.25-14.38,8.64-19.92,14.34-17.13,17.61-23.5,35.38-23.5,65.56,0,7.52,1.48,10.67,10.66,10.67h38.7c9.74,0,10.66-1.89,10.66-10.67,0-28.89,21-43.11,37.74-54.78,18.81-13.13,38.71-30,38.71-59.89,0-59.83-55.71-81.06-103.43-81.06-87.84,0-101.73,66.91-103.9,87.8,0,10,.51,10,3.68,10h46.61c7.47,0,8.81-3.18,10.27-11l.06-.29C2496.41,197.34,2511.57,181,2536,181Zm15.85,160.94h-38.7c-17.18,0-19.17-10.94-19.17-19.17,0-32.28,7.27-52.32,25.91-71.49,6.32-6.5,14.11-11.17,21.64-15.7,12-7.21,22.37-13.44,22.37-24.68,0-12-12.25-21.4-27.9-21.4-22.56,0-32.89,16.31-35.48,26.06a45.8,45.8,0,0,1-1.83,7c-1.52,4.71-6.57,8.28-6.57,8.28a19.3,19.3,0,0,1-10.2,2.48h-46.61c-12.18,0-12.18-9.94-12.18-18.71l0-.43c1.4-13.79,6.7-40.2,26.48-62.15,20.05-22.23,49-33.51,85.9-33.51,29.82,0,57.13,7.6,76.9,21.4,22.92,16,35,39.56,35,68.17,0,36.78-27.47,56.47-42.35,66.86-15.93,11.12-34.11,23.4-34.11,47.81C2571,336.73,2565.77,341.93,2551.8,341.93Z" transform="translate(0 -111.72)"/><path class="cls-26" d="M3395.61,426.92l-810.17-.15a19.27,19.27,0,0,1-19.25-19.26V370.77c0-8-2.73-9.26-9.26-9.26h-51.75c-6.54,0-9.27,1.29-9.27,9.26v36.74a19.27,19.27,0,0,1-19.25,19.26L0,427.21v-9.3l2476.66.35a10.76,10.76,0,0,0,10.75-10.75V370.77c0-11.95,5.81-17.76,17.77-17.76h51.75c12,0,17.76,5.81,17.76,17.76v36.74a10.76,10.76,0,0,0,10.75,10.75h810.17Z" transform="translate(0 -111.72)"/></g><g class="cls-27"><path class="cls-28" d="M2536.17,180.77c20.42,0,36.41,13.13,36.41,29.9,0,16.05-13.47,24.15-26.5,32-7.07,4.25-14.38,8.64-19.92,14.34-17.13,17.61-23.5,35.38-23.5,65.56,0,7.52,1.48,10.67,10.66,10.67H2552c9.75,0,10.67-1.89,10.67-10.67,0-28.89,21-43.11,37.74-54.78,18.81-13.13,38.71-30,38.71-59.89,0-59.83-55.71-81.06-103.43-81.06-87.84,0-101.73,66.91-103.9,87.8,0,10,.51,10,3.68,10h46.61c7.47,0,8.81-3.18,10.27-11l.06-.29C2496.63,197.12,2511.79,180.77,2536.17,180.77ZM2552,341.71h-38.69c-17.18,0-19.17-10.94-19.17-19.17,0-32.28,7.27-52.32,25.91-71.49,6.32-6.49,14.11-11.17,21.64-15.7,12-7.21,22.37-13.44,22.37-24.68,0-12-12.25-21.39-27.9-21.39-22.56,0-32.89,16.3-35.48,26.05a47,47,0,0,1-1.83,7c-1.52,4.71-6.57,8.28-6.57,8.28a19.33,19.33,0,0,1-10.2,2.48h-46.61c-12.19,0-12.19-9.94-12.19-18.71l0-.43c1.4-13.79,6.7-40.2,26.48-62.14,20-22.24,48.95-33.51,85.9-33.51,29.82,0,57.13,7.59,76.9,21.39,22.92,16,35,39.56,35,68.17,0,36.78-27.47,56.47-42.35,66.86-15.93,11.12-34.11,23.4-34.11,47.81C2571.18,336.52,2566,341.71,2552,341.71Z" transform="translate(0 -111.72)"/><path class="cls-28" d="M3395.61,426.72l-810-.17a19.27,19.27,0,0,1-19.25-19.26V370.55c0-8-2.73-9.26-9.27-9.26h-51.75c-6.53,0-9.26,1.29-9.26,9.26v36.74a19.27,19.27,0,0,1-19.25,19.26L0,427v-9.27l2476.88.33a10.76,10.76,0,0,0,10.75-10.75V370.55c0-11.95,5.81-17.76,17.76-17.76h51.75c12,0,17.77,5.81,17.77,17.76v36.74A10.76,10.76,0,0,0,2585.66,418h810Z" transform="translate(0 -111.72)"/></g><g class="cls-29"><path class="cls-30" d="M2536.39,180.55c20.41,0,36.41,13.13,36.41,29.9,0,16.05-13.47,24.15-26.5,32-7.07,4.25-14.38,8.64-19.92,14.34-17.13,17.61-23.5,35.38-23.5,65.56,0,7.52,1.48,10.67,10.66,10.67h38.69c9.75,0,10.67-1.89,10.67-10.67,0-28.89,21-43.11,37.74-54.78,18.81-13.13,38.71-30,38.71-59.89,0-59.83-55.71-81.06-103.43-81.06-87.84,0-101.74,66.91-103.9,87.8,0,10,.51,10,3.67,10h46.62c7.47,0,8.81-3.17,10.27-11l.06-.29C2496.85,196.9,2512,180.55,2536.39,180.55Zm15.84,160.94h-38.69c-17.18,0-19.17-10.94-19.17-19.17,0-32.27,7.27-52.32,25.91-71.49,6.32-6.49,14.11-11.17,21.64-15.7,12-7.21,22.37-13.44,22.37-24.68,0-12-12.25-21.39-27.9-21.39-22.56,0-32.89,16.3-35.48,26.05a47.39,47.39,0,0,1-1.83,7c-1.52,4.7-6.58,8.27-6.58,8.27a19.26,19.26,0,0,1-10.19,2.48h-46.62c-12.18,0-12.18-9.94-12.18-18.71l0-.43c1.4-13.79,6.7-40.2,26.48-62.14,20.05-22.24,48.95-33.51,85.9-33.51,29.82,0,57.13,7.59,76.9,21.39,22.92,16,35,39.56,35,68.17,0,36.78-27.47,56.47-42.35,66.86-15.93,11.12-34.11,23.4-34.11,47.81C2571.4,336.3,2566.21,341.49,2552.23,341.49Z" transform="translate(0 -111.72)"/><path class="cls-30" d="M3395.61,426.51l-809.73-.18a19.27,19.27,0,0,1-19.25-19.26V370.33c0-8-2.73-9.26-9.27-9.26h-51.75c-6.53,0-9.26,1.29-9.26,9.26v36.74a19.27,19.27,0,0,1-19.25,19.26L0,426.74V417.5l2477.1.32a10.76,10.76,0,0,0,10.75-10.75V370.33c0-11.95,5.81-17.76,17.76-17.76h51.75c12,0,17.77,5.81,17.77,17.76v36.74a10.76,10.76,0,0,0,10.75,10.75h809.73Z" transform="translate(0 -111.72)"/></g><g class="cls-31"><path class="cls-32" d="M2536.61,180.33c20.41,0,36.41,13.13,36.41,29.9,0,16.05-13.47,24.15-26.5,32-7.07,4.25-14.38,8.64-19.92,14.34-17.13,17.61-23.5,35.38-23.5,65.56,0,7.52,1.48,10.67,10.66,10.67h38.69c9.75,0,10.67-1.89,10.67-10.67,0-28.89,21-43.11,37.74-54.78,18.81-13.13,38.71-30,38.71-59.89,0-59.83-55.71-81.06-103.43-81.06-87.84,0-101.74,66.91-103.9,87.8,0,10,.51,10,3.67,10h46.62c7.47,0,8.81-3.17,10.27-11l.06-.29C2497.07,196.68,2512.23,180.33,2536.61,180.33Zm15.84,160.94h-38.69c-17.18,0-19.17-10.94-19.17-19.17,0-32.27,7.27-52.32,25.91-71.49,6.32-6.49,14.11-11.17,21.64-15.7,12-7.21,22.37-13.44,22.37-24.68,0-12-12.25-21.39-27.9-21.39-22.56,0-32.89,16.3-35.48,26a47.39,47.39,0,0,1-1.83,7c-1.52,4.7-6.58,8.27-6.58,8.27a19.26,19.26,0,0,1-10.19,2.48h-46.62c-12.18,0-12.18-9.94-12.18-18.71l0-.43c1.39-13.79,6.7-40.2,26.48-62.14,20.05-22.24,49-33.51,85.9-33.51,29.82,0,57.13,7.59,76.9,21.39,22.92,16,35,39.56,35,68.17,0,36.78-27.47,56.47-42.35,66.86-15.93,11.12-34.11,23.4-34.11,47.81C2571.62,336.08,2566.43,341.27,2552.45,341.27Z" transform="translate(0 -111.72)"/><path class="cls-32" d="M3395.61,426.3l-809.51-.19a19.27,19.27,0,0,1-19.25-19.25V370.11c0-8-2.73-9.26-9.27-9.26h-51.75c-6.53,0-9.26,1.29-9.26,9.26v36.75a19.27,19.27,0,0,1-19.25,19.25L0,426.51v-9.22l2477.32.31a10.76,10.76,0,0,0,10.75-10.74V370.11c0-11.95,5.81-17.76,17.76-17.76h51.75c12,0,17.77,5.81,17.77,17.76v36.75a10.76,10.76,0,0,0,10.75,10.74h809.51Z" transform="translate(0 -111.72)"/></g><g class="cls-33"><path class="cls-34" d="M2536.83,180.11c20.41,0,36.41,13.13,36.41,29.9,0,16.06-13.47,24.15-26.5,32-7.07,4.25-14.38,8.64-19.92,14.34-17.13,17.62-23.5,35.38-23.5,65.56,0,7.52,1.48,10.67,10.66,10.67h38.69c9.75,0,10.67-1.89,10.67-10.67,0-28.89,21-43.11,37.74-54.78,18.81-13.13,38.71-30,38.71-59.89,0-59.83-55.72-81.06-103.43-81.06-87.84,0-101.74,66.91-103.9,87.8,0,10,.51,10,3.67,10h46.62c7.47,0,8.81-3.18,10.27-11l.06-.29C2497.29,196.46,2512.45,180.11,2536.83,180.11Zm15.84,160.94H2514c-17.18,0-19.17-10.94-19.17-19.17,0-32.27,7.27-52.32,25.91-71.49,6.31-6.49,14.1-11.17,21.64-15.7,12-7.21,22.37-13.44,22.37-24.68,0-12-12.25-21.39-27.9-21.39-22.56,0-32.89,16.3-35.48,26a47.39,47.39,0,0,1-1.83,7c-1.52,4.7-6.58,8.28-6.58,8.28a19.36,19.36,0,0,1-10.19,2.47h-46.62c-12.18,0-12.18-9.94-12.18-18.71l0-.42c1.4-13.8,6.7-40.21,26.49-62.15,20.05-22.24,48.95-33.51,85.9-33.51,29.82,0,57.13,7.59,76.9,21.39,22.92,16,35,39.56,35,68.17,0,36.78-27.47,56.47-42.35,66.86-15.93,11.12-34.11,23.4-34.11,47.81C2571.84,335.86,2566.65,341.05,2552.67,341.05Z" transform="translate(0 -111.72)"/><path class="cls-34" d="M3395.61,426.1l-809.29-.21a19.28,19.28,0,0,1-19.26-19.25V369.89c0-8-2.73-9.26-9.26-9.26h-51.75c-6.53,0-9.26,1.29-9.26,9.26v36.75a19.28,19.28,0,0,1-19.25,19.25L0,426.28v-9.19l2477.54.29a10.76,10.76,0,0,0,10.75-10.74V369.89c0-11.95,5.81-17.76,17.76-17.76h51.75c12,0,17.77,5.81,17.77,17.76v36.75a10.76,10.76,0,0,0,10.75,10.74l809.29,0Z" transform="translate(0 -111.72)"/></g><g class="cls-35"><path class="cls-36" d="M2537.05,179.89c20.41,0,36.41,13.13,36.41,29.9,0,16.06-13.48,24.15-26.5,32-7.07,4.25-14.38,8.64-19.92,14.34-17.14,17.62-23.5,35.38-23.5,65.56,0,7.52,1.48,10.67,10.66,10.67h38.69c9.75,0,10.67-1.89,10.67-10.67,0-28.89,21-43.11,37.74-54.78,18.81-13.13,38.71-30,38.71-59.89,0-59.83-55.72-81.06-103.43-81.06-87.85,0-101.74,66.91-103.9,87.8,0,10,.51,10,3.67,10H2483c7.47,0,8.81-3.18,10.27-11l.06-.28C2497.51,196.24,2512.67,179.89,2537.05,179.89Zm15.84,160.94H2514.2c-17.18,0-19.17-10.94-19.17-19.17,0-32.27,7.27-52.32,25.91-71.49,6.31-6.49,14.1-11.17,21.64-15.7,12-7.21,22.37-13.44,22.37-24.68,0-12-12.26-21.39-27.9-21.39-22.56,0-32.89,16.3-35.48,26a47.39,47.39,0,0,1-1.83,7c-1.52,4.7-6.58,8.28-6.58,8.28a19.36,19.36,0,0,1-10.19,2.47h-46.62c-12.18,0-12.18-9.94-12.18-18.71l0-.42c1.4-13.8,6.7-40.21,26.49-62.15,20.05-22.24,49-33.51,85.9-33.51,29.82,0,57.13,7.59,76.9,21.39,22.92,16,35,39.56,35,68.17,0,36.78-27.47,56.47-42.35,66.86-15.93,11.12-34.11,23.4-34.11,47.81C2572.06,335.64,2566.87,340.83,2552.89,340.83Z" transform="translate(0 -111.72)"/><path class="cls-36" d="M3395.61,425.89l-809.07-.22a19.28,19.28,0,0,1-19.26-19.25V369.67c0-8-2.73-9.26-9.26-9.26h-51.75c-6.53,0-9.26,1.29-9.26,9.26v36.75a19.28,19.28,0,0,1-19.25,19.25L0,426v-9.16l2477.76.28a10.76,10.76,0,0,0,10.75-10.74V369.67c0-11.95,5.81-17.76,17.76-17.76H2558c12,0,17.77,5.81,17.77,17.76v36.75a10.76,10.76,0,0,0,10.75,10.74l809.07,0Z" transform="translate(0 -111.72)"/></g><g class="cls-37"><path class="cls-38" d="M2537.27,179.67c20.41,0,36.41,13.14,36.41,29.9,0,16.06-13.48,24.15-26.5,32-7.07,4.25-14.38,8.64-19.92,14.34-17.14,17.62-23.51,35.39-23.51,65.56,0,7.52,1.49,10.67,10.67,10.67h38.69c9.75,0,10.67-1.88,10.67-10.67,0-28.89,21-43.11,37.74-54.78,18.81-13.13,38.71-30,38.71-59.89,0-59.83-55.72-81.06-103.43-81.06-87.85,0-101.74,66.91-103.9,87.8,0,10,.51,10,3.67,10h46.62c7.47,0,8.81-3.18,10.27-11l.06-.28C2497.73,196,2512.89,179.67,2537.27,179.67Zm15.84,160.94h-38.69c-17.18,0-19.17-10.94-19.17-19.17,0-32.27,7.26-52.32,25.91-71.49,6.31-6.49,14.1-11.17,21.64-15.7,12-7.21,22.37-13.44,22.37-24.68,0-12-12.26-21.39-27.9-21.39-22.56,0-32.89,16.3-35.48,26a47.39,47.39,0,0,1-1.83,7c-1.52,4.7-6.58,8.28-6.58,8.28a19.36,19.36,0,0,1-10.19,2.47h-46.62c-12.18,0-12.18-9.94-12.18-18.7l0-.43c1.4-13.8,6.7-40.21,26.49-62.15,20-22.24,48.95-33.51,85.9-33.51,29.82,0,57.13,7.6,76.9,21.39,22.92,16,35,39.57,35,68.17,0,36.78-27.47,56.47-42.36,66.86-15.92,11.12-34.1,23.4-34.1,47.81C2572.28,335.42,2567.09,340.61,2553.11,340.61Z" transform="translate(0 -111.72)"/><path class="cls-38" d="M3395.61,425.69l-808.85-.24a19.28,19.28,0,0,1-19.26-19.25V369.45c0-8-2.73-9.26-9.26-9.26h-51.75c-6.53,0-9.26,1.29-9.26,9.26V406.2A19.28,19.28,0,0,1,2478,425.45L0,425.81v-9.13l2478,.26a10.76,10.76,0,0,0,10.75-10.74V369.45c0-11.95,5.81-17.76,17.76-17.76h51.75c12,0,17.77,5.81,17.77,17.76V406.2a10.76,10.76,0,0,0,10.75,10.74l808.85,0Z" transform="translate(0 -111.72)"/></g><g class="cls-39"><path class="cls-40" d="M2537.49,179.45c20.41,0,36.41,13.14,36.41,29.9,0,16.06-13.48,24.15-26.5,32-7.07,4.25-14.38,8.64-19.92,14.34-17.14,17.62-23.51,35.39-23.51,65.56,0,7.52,1.49,10.67,10.67,10.67h38.69c9.75,0,10.67-1.88,10.67-10.67,0-28.89,21-43.11,37.74-54.78,18.81-13.13,38.71-30,38.71-59.89,0-59.83-55.72-81.06-103.43-81.06-87.85,0-101.74,66.91-103.9,87.8,0,10,.51,10,3.67,10h46.62c7.47,0,8.8-3.18,10.26-11l.07-.28C2498,195.8,2513.11,179.45,2537.49,179.45Zm15.84,160.94h-38.69c-17.18,0-19.17-10.94-19.17-19.17,0-32.27,7.26-52.32,25.91-71.49,6.31-6.49,14.1-11.17,21.64-15.7,12-7.21,22.37-13.44,22.37-24.68,0-12-12.26-21.39-27.9-21.39-22.56,0-32.89,16.3-35.48,26a47.08,47.08,0,0,1-1.83,7c-1.52,4.7-6.58,8.28-6.58,8.28a19.36,19.36,0,0,1-10.19,2.47h-46.62c-12.18,0-12.18-9.94-12.18-18.7l0-.43c1.4-13.8,6.7-40.21,26.49-62.15,20.05-22.24,49-33.51,85.9-33.51,29.82,0,57.13,7.6,76.9,21.39,22.92,16,35,39.57,35,68.17,0,36.78-27.46,56.47-42.35,66.86-15.92,11.12-34.1,23.4-34.1,47.81C2572.5,335.2,2567.31,340.39,2553.33,340.39Z" transform="translate(0 -111.72)"/><path class="cls-40" d="M3395.61,425.48,2587,425.23A19.28,19.28,0,0,1,2567.72,406V369.24c0-8-2.73-9.26-9.26-9.26h-51.75c-6.53,0-9.26,1.28-9.26,9.26V406a19.28,19.28,0,0,1-19.25,19.25L0,425.58v-9.11l2478.2.26A10.77,10.77,0,0,0,2489,406V369.24c0-12,5.81-17.77,17.76-17.77h51.75c12,0,17.77,5.81,17.77,17.77V406A10.77,10.77,0,0,0,2587,416.73l808.63-.05Z" transform="translate(0 -111.72)"/></g><g class="cls-41"><path class="cls-42" d="M2537.7,179.23c20.42,0,36.41,13.14,36.41,29.9,0,16.06-13.47,24.15-26.49,32-7.07,4.25-14.38,8.64-19.93,14.34-17.13,17.62-23.5,35.39-23.5,65.56,0,7.53,1.49,10.67,10.67,10.67h38.69c9.75,0,10.67-1.88,10.67-10.67,0-28.89,21-43.11,37.74-54.78,18.81-13.13,38.71-30,38.71-59.89,0-59.83-55.72-81.06-103.43-81.06-87.85,0-101.74,66.91-103.91,87.8,0,10,.52,10,3.68,10h46.62c7.47,0,8.8-3.18,10.26-11l.07-.28C2498.17,195.58,2513.33,179.23,2537.7,179.23Zm15.85,160.94h-38.69c-17.18,0-19.17-10.94-19.17-19.17,0-32.27,7.26-52.32,25.91-71.49,6.31-6.49,14.1-11.17,21.64-15.7,12-7.21,22.37-13.44,22.37-24.68,0-12-12.26-21.39-27.91-21.39-22.55,0-32.88,16.31-35.47,26a47.08,47.08,0,0,1-1.83,7c-1.52,4.7-6.58,8.28-6.58,8.28a19.36,19.36,0,0,1-10.19,2.47H2437c-12.18,0-12.18-9.94-12.18-18.7l0-.43c1.4-13.79,6.7-40.21,26.49-62.15,20-22.24,48.95-33.51,85.9-33.51,29.82,0,57.13,7.6,76.9,21.39,22.92,16,35,39.57,35,68.17,0,36.78-27.46,56.47-42.35,66.86-15.92,11.12-34.1,23.4-34.1,47.81C2572.72,335,2567.53,340.17,2553.55,340.17Z" transform="translate(0 -111.72)"/><path class="cls-42" d="M3395.61,425.27,2587.19,425a19.28,19.28,0,0,1-19.25-19.25V369c0-8-2.73-9.26-9.26-9.26h-51.75c-6.53,0-9.26,1.28-9.26,9.26v36.74A19.28,19.28,0,0,1,2478.42,425L0,425.34v-9.08l2478.42.25a10.77,10.77,0,0,0,10.75-10.75V369c0-12,5.81-17.77,17.76-17.77h51.75c12,0,17.77,5.81,17.77,17.77v36.74a10.76,10.76,0,0,0,10.74,10.75l808.42-.05Z" transform="translate(0 -111.72)"/></g><g class="cls-43"><path class="cls-44" d="M2537.92,179c20.42,0,36.41,13.13,36.41,29.89,0,16.06-13.47,24.15-26.49,32-7.07,4.25-14.38,8.64-19.93,14.34-17.13,17.62-23.5,35.39-23.5,65.56,0,7.53,1.49,10.67,10.67,10.67h38.69c9.75,0,10.67-1.88,10.67-10.67,0-28.89,21-43.11,37.74-54.78,18.81-13.13,38.71-30,38.71-59.89,0-59.83-55.72-81.06-103.43-81.06-87.85,0-101.74,66.91-103.91,87.8,0,10,.52,10,3.68,10h46.62c7.47,0,8.8-3.18,10.26-11l.07-.29C2498.39,195.36,2513.55,179,2537.92,179ZM2553.77,340h-38.69c-17.18,0-19.17-10.94-19.17-19.17,0-32.27,7.26-52.32,25.91-71.49,6.31-6.49,14.1-11.17,21.64-15.7,12-7.21,22.37-13.43,22.37-24.68,0-12-12.26-21.39-27.91-21.39-22.55,0-32.89,16.31-35.48,26a45.52,45.52,0,0,1-1.82,7c-1.52,4.7-6.58,8.28-6.58,8.28a19.36,19.36,0,0,1-10.19,2.47h-46.62c-12.18,0-12.18-9.94-12.18-18.7l0-.43c1.4-13.79,6.7-40.21,26.49-62.15,20-22.24,49-33.51,85.9-33.51,29.82,0,57.13,7.6,76.9,21.39,22.92,16,35,39.57,35,68.17,0,36.78-27.46,56.47-42.35,66.86-15.92,11.12-34.1,23.4-34.1,47.81C2572.94,334.76,2567.74,340,2553.77,340Z" transform="translate(0 -111.72)"/><path class="cls-44" d="M3395.61,425.07l-808.2-.28a19.28,19.28,0,0,1-19.25-19.25V368.8c0-8-2.73-9.26-9.26-9.26h-51.75c-6.53,0-9.26,1.28-9.26,9.26v36.74a19.28,19.28,0,0,1-19.25,19.25L0,425.11v-9.05l2478.64.23a10.77,10.77,0,0,0,10.75-10.75V368.8c0-12,5.81-17.77,17.76-17.77h51.75c11.95,0,17.77,5.81,17.77,17.77v36.74a10.76,10.76,0,0,0,10.74,10.75l808.2-.06Z" transform="translate(0 -111.72)"/></g><g class="cls-45"><path class="cls-46" d="M2538.14,178.8c20.42,0,36.41,13.13,36.41,29.89,0,16.06-13.47,24.15-26.5,32-7.06,4.25-14.37,8.64-19.92,14.34-17.13,17.62-23.5,35.39-23.5,65.56,0,7.53,1.49,10.67,10.67,10.67H2554c9.75,0,10.67-1.88,10.67-10.67,0-28.89,21-43.11,37.74-54.78,18.8-13.13,38.71-30,38.71-59.89,0-59.83-55.72-81.06-103.43-81.06-87.85,0-101.74,66.91-103.91,87.8,0,10,.52,10,3.68,10h46.62c7.47,0,8.8-3.18,10.26-11l.07-.29C2498.61,195.14,2513.77,178.8,2538.14,178.8ZM2554,339.73H2515.3c-17.18,0-19.17-10.94-19.17-19.17,0-32.27,7.26-52.31,25.91-71.49,6.31-6.49,14.1-11.17,21.64-15.7,12-7.21,22.37-13.43,22.37-24.68,0-12-12.26-21.39-27.91-21.39-22.55,0-32.89,16.31-35.48,26a46.74,46.74,0,0,1-1.82,7c-1.52,4.71-6.58,8.28-6.58,8.28a19.36,19.36,0,0,1-10.19,2.47h-46.62c-12.18,0-12.18-9.94-12.18-18.7l0-.43c1.4-13.79,6.7-40.21,26.49-62.15,20-22.24,48.95-33.51,85.9-33.51,29.82,0,57.13,7.6,76.9,21.39,22.92,16,35,39.57,35,68.17,0,36.78-27.46,56.47-42.35,66.86-15.92,11.12-34.1,23.4-34.1,47.81C2573.16,334.54,2568,339.73,2554,339.73Z" transform="translate(0 -111.72)"/><path class="cls-46" d="M3395.61,424.86l-808-.29a19.28,19.28,0,0,1-19.25-19.25V368.58c0-8-2.73-9.26-9.26-9.26h-51.75c-6.53,0-9.26,1.28-9.26,9.26v36.74a19.28,19.28,0,0,1-19.25,19.25L0,424.88v-9l2478.86.22a10.76,10.76,0,0,0,10.74-10.75V368.58c0-12,5.82-17.77,17.77-17.77h51.75c12,0,17.77,5.81,17.77,17.77v36.74a10.76,10.76,0,0,0,10.74,10.75l808-.07Z" transform="translate(0 -111.72)"/></g><g class="cls-47"><path class="cls-48" d="M2538.36,178.58c20.42,0,36.41,13.13,36.41,29.89,0,16.06-13.47,24.15-26.5,32-7.06,4.24-14.37,8.63-19.92,14.33-17.13,17.62-23.5,35.39-23.5,65.57,0,7.52,1.48,10.66,10.67,10.66h38.69c9.75,0,10.67-1.88,10.67-10.66,0-28.9,21-43.11,37.74-54.79,18.8-13.13,38.71-30,38.71-59.89,0-59.83-55.72-81.06-103.43-81.06-87.85,0-101.74,66.91-103.91,87.8,0,10,.52,10,3.68,10h46.62c7.47,0,8.8-3.18,10.26-11l.07-.29C2498.83,194.93,2514,178.58,2538.36,178.58Zm15.85,160.94h-38.69c-17.18,0-19.17-10.95-19.17-19.17,0-32.28,7.26-52.32,25.91-71.5,6.31-6.49,14.1-11.17,21.64-15.69,12-7.22,22.37-13.44,22.37-24.69,0-12-12.26-21.39-27.91-21.39-22.55,0-32.89,16.31-35.48,26a46.44,46.44,0,0,1-1.82,7c-1.52,4.71-6.58,8.28-6.58,8.28a19.36,19.36,0,0,1-10.19,2.47h-46.62c-12.18,0-12.18-9.93-12.18-18.7l0-.43c1.4-13.79,6.7-40.21,26.49-62.15,20-22.24,48.95-33.51,85.9-33.51,29.81,0,57.13,7.6,76.9,21.39,22.92,16,35,39.57,35,68.17,0,36.78-27.46,56.47-42.35,66.86-15.92,11.12-34.1,23.4-34.1,47.82C2573.38,334.32,2568.18,339.52,2554.21,339.52Z" transform="translate(0 -111.72)"/><path class="cls-48" d="M3395.61,424.66l-807.76-.31a19.28,19.28,0,0,1-19.25-19.25V368.36c0-8-2.73-9.26-9.26-9.26h-51.75c-6.53,0-9.26,1.28-9.26,9.26V405.1a19.28,19.28,0,0,1-19.25,19.25L0,424.64v-9l2479.08.2a10.76,10.76,0,0,0,10.74-10.75V368.36c0-12,5.82-17.77,17.77-17.77h51.75c11.95,0,17.77,5.81,17.77,17.77V405.1a10.76,10.76,0,0,0,10.74,10.75l807.76-.07Z" transform="translate(0 -111.72)"/></g><g class="cls-49"><path class="cls-50" d="M2538.58,178.36c20.42,0,36.41,13.13,36.41,29.89,0,16.06-13.47,24.15-26.5,32-7.06,4.24-14.37,8.63-19.92,14.33-17.13,17.62-23.5,35.39-23.5,65.57,0,7.52,1.48,10.66,10.67,10.66h38.69c9.75,0,10.66-1.88,10.66-10.66,0-28.89,21-43.11,37.74-54.79,18.81-13.13,38.72-30,38.72-59.89,0-59.83-55.72-81.06-103.43-81.06-87.85,0-101.74,66.91-103.91,87.81,0,10,.52,10,3.68,10h46.62c7.47,0,8.8-3.18,10.26-11l.07-.29C2499.05,194.71,2514.21,178.36,2538.58,178.36Zm15.85,160.94h-38.69c-17.18,0-19.17-10.94-19.17-19.17,0-32.28,7.26-52.32,25.91-71.49,6.31-6.5,14.1-11.18,21.64-15.7,12-7.22,22.37-13.44,22.37-24.69,0-12-12.26-21.39-27.91-21.39-22.55,0-32.89,16.31-35.48,26a46.44,46.44,0,0,1-1.82,7c-1.52,4.71-6.58,8.28-6.58,8.28a19.36,19.36,0,0,1-10.19,2.47h-46.62c-12.18,0-12.18-9.93-12.18-18.7l0-.43c1.4-13.79,6.7-40.21,26.48-62.15,20.05-22.24,49-33.51,85.91-33.51,29.81,0,57.12,7.6,76.9,21.39,22.92,16,35,39.57,35,68.17,0,36.78-27.46,56.47-42.35,66.87-15.92,11.11-34.1,23.39-34.1,47.81C2573.6,334.1,2568.4,339.3,2554.43,339.3Z" transform="translate(0 -111.72)"/><path class="cls-50" d="M3395.61,424.45l-807.54-.32a19.28,19.28,0,0,1-19.25-19.25V368.14c0-8-2.73-9.26-9.26-9.26h-51.75c-6.53,0-9.26,1.28-9.26,9.26v36.74a19.28,19.28,0,0,1-19.25,19.25L0,424.41v-9l2479.3.19A10.76,10.76,0,0,0,2490,404.88V368.14c0-12,5.82-17.77,17.77-17.77h51.75c12,0,17.76,5.81,17.76,17.77v36.74a10.77,10.77,0,0,0,10.75,10.75l807.54-.08Z" transform="translate(0 -111.72)"/></g><g class="cls-51"><path class="cls-52" d="M2538.8,178.14c20.42,0,36.41,13.13,36.41,29.89,0,16.06-13.47,24.15-26.5,32-7.06,4.24-14.37,8.63-19.92,14.33-17.13,17.62-23.5,35.39-23.5,65.57,0,7.52,1.48,10.66,10.67,10.66h38.69c9.75,0,10.66-1.88,10.66-10.66,0-28.89,21-43.11,37.74-54.79,18.81-13.13,38.72-30,38.72-59.89,0-59.83-55.72-81.06-103.43-81.06-87.85,0-101.74,66.91-103.91,87.81,0,10,.52,10,3.68,10h46.62c7.46,0,8.8-3.18,10.26-11l.07-.29C2499.27,194.49,2514.43,178.14,2538.8,178.14Zm15.85,160.94H2516c-17.19,0-19.17-10.94-19.17-19.17,0-32.28,7.26-52.32,25.91-71.49,6.31-6.5,14.1-11.18,21.63-15.7,12-7.22,22.38-13.44,22.38-24.69,0-12-12.26-21.39-27.91-21.39-22.55,0-32.89,16.31-35.48,26.05a46.44,46.44,0,0,1-1.82,7c-1.52,4.71-6.58,8.28-6.58,8.28a19.36,19.36,0,0,1-10.19,2.47h-46.62c-12.18,0-12.18-9.93-12.18-18.7l0-.43c1.4-13.79,6.7-40.21,26.48-62.15,20.05-22.23,49-33.51,85.91-33.51,29.81,0,57.12,7.6,76.9,21.39,22.92,16,35,39.57,35,68.17,0,36.78-27.46,56.47-42.35,66.87-15.92,11.11-34.1,23.39-34.1,47.81C2573.82,333.88,2568.62,339.08,2554.65,339.08Z" transform="translate(0 -111.72)"/><path class="cls-52" d="M3395.61,424.24l-807.32-.33A19.27,19.27,0,0,1,2569,404.66V367.92c0-8-2.73-9.26-9.26-9.26H2508c-6.53,0-9.26,1.29-9.26,9.26v36.74a19.27,19.27,0,0,1-19.25,19.25L0,424.18v-8.95l2479.52.18a10.76,10.76,0,0,0,10.74-10.75V367.92c0-12,5.81-17.77,17.77-17.77h51.75c11.95,0,17.76,5.81,17.76,17.77v36.74a10.77,10.77,0,0,0,10.75,10.75l807.32-.09Z" transform="translate(0 -111.72)"/></g><g class="cls-53"><path class="cls-54" d="M2539,177.92c20.42,0,36.41,13.13,36.41,29.89,0,16.06-13.47,24.15-26.5,32-7.07,4.24-14.37,8.63-19.92,14.33-17.13,17.62-23.5,35.39-23.5,65.57,0,7.52,1.48,10.66,10.67,10.66h38.69c9.74,0,10.66-1.88,10.66-10.66,0-28.89,21-43.11,37.74-54.79,18.81-13.13,38.72-30,38.72-59.88,0-59.84-55.72-81.06-103.43-81.06-87.85,0-101.74,66.9-103.91,87.8,0,10,.51,10,3.68,10H2485c7.46,0,8.8-3.18,10.26-11l.07-.29C2499.49,194.27,2514.65,177.92,2539,177.92Zm15.85,160.94h-38.69c-17.19,0-19.17-10.94-19.17-19.17,0-32.28,7.26-52.32,25.91-71.49,6.31-6.5,14.1-11.18,21.63-15.7,12-7.21,22.38-13.44,22.38-24.69,0-12-12.26-21.39-27.91-21.39-22.55,0-32.89,16.31-35.48,26.05a46.44,46.44,0,0,1-1.82,7c-1.53,4.71-6.58,8.28-6.58,8.28a19.27,19.27,0,0,1-10.19,2.47h-46.62c-12.18,0-12.18-9.93-12.18-18.7l0-.43c1.4-13.79,6.7-40.21,26.48-62.15,20-22.23,48.95-33.51,85.91-33.51,29.81,0,57.12,7.6,76.9,21.4,22.92,16,35,39.56,35,68.17,0,36.77-27.46,56.46-42.35,66.86-15.92,11.11-34.1,23.39-34.1,47.81C2574,333.66,2568.84,338.86,2554.87,338.86Z" transform="translate(0 -111.72)"/><path class="cls-54" d="M3395.61,424l-807.1-.35a19.27,19.27,0,0,1-19.25-19.25V367.7c0-8-2.73-9.26-9.26-9.26h-51.75c-6.53,0-9.26,1.29-9.26,9.26v36.74a19.27,19.27,0,0,1-19.26,19.25L0,423.94V415l2479.73.16a10.76,10.76,0,0,0,10.75-10.75V367.7c0-11.95,5.81-17.77,17.77-17.77H2560c11.95,0,17.76,5.82,17.76,17.77v36.74a10.77,10.77,0,0,0,10.75,10.75l807.1-.09Z" transform="translate(0 -111.72)"/></g><g class="cls-55"><path class="cls-56" d="M2539.24,177.7c20.42,0,36.41,13.13,36.41,29.89,0,16.06-13.47,24.15-26.5,32-7.07,4.24-14.37,8.63-19.92,14.33-17.13,17.62-23.5,35.39-23.5,65.57,0,7.52,1.48,10.66,10.67,10.66h38.69c9.74,0,10.66-1.88,10.66-10.66,0-28.89,21-43.11,37.74-54.79,18.81-13.13,38.72-30,38.72-59.88,0-59.83-55.72-81.06-103.43-81.06-87.85,0-101.74,66.9-103.91,87.8,0,10,.51,10,3.68,10h46.62c7.46,0,8.8-3.18,10.26-11l.07-.29C2499.71,194.05,2514.87,177.7,2539.24,177.7Zm15.85,160.94H2516.4c-17.19,0-19.17-10.94-19.17-19.17,0-32.28,7.26-52.32,25.9-71.49,6.32-6.5,14.11-11.18,21.64-15.7,12-7.21,22.38-13.44,22.38-24.69,0-12-12.26-21.39-27.91-21.39-22.55,0-32.89,16.31-35.48,26.05a46.44,46.44,0,0,1-1.82,7c-1.53,4.71-6.58,8.28-6.58,8.28a19.27,19.27,0,0,1-10.19,2.47h-46.62c-12.18,0-12.18-9.93-12.18-18.7l0-.43c1.4-13.79,6.7-40.21,26.48-62.15,20.05-22.23,49-33.51,85.91-33.51,29.81,0,57.12,7.6,76.9,21.4,22.92,16,35,39.56,35,68.17,0,36.77-27.46,56.46-42.35,66.86-15.93,11.12-34.1,23.4-34.1,47.81C2574.26,333.44,2569.06,338.64,2555.09,338.64Z" transform="translate(0 -111.72)"/><path class="cls-56" d="M3395.61,423.83l-806.88-.36a19.27,19.27,0,0,1-19.25-19.25V367.48c0-8-2.73-9.26-9.26-9.26h-51.75c-6.53,0-9.26,1.29-9.26,9.26v36.74A19.27,19.27,0,0,1,2480,423.47L0,423.71v-8.89L2480,415a10.76,10.76,0,0,0,10.75-10.75V367.48c0-12,5.81-17.76,17.77-17.76h51.75c12,0,17.76,5.81,17.76,17.76v36.74A10.76,10.76,0,0,0,2588.73,415l806.88-.1Z" transform="translate(0 -111.72)"/></g><g class="cls-57"><path class="cls-58" d="M2539.46,177.48c20.42,0,36.41,13.13,36.41,29.89,0,16.06-13.47,24.15-26.5,32-7.07,4.24-14.38,8.63-19.92,14.34-17.13,17.61-23.5,35.38-23.5,65.56,0,7.52,1.48,10.66,10.67,10.66h38.69c9.74,0,10.66-1.88,10.66-10.66,0-28.89,21-43.11,37.74-54.79,18.81-13.13,38.72-30,38.72-59.88,0-59.83-55.72-81.06-103.43-81.06-87.85,0-101.74,66.9-103.91,87.8,0,10,.51,10,3.68,10h46.62c7.46,0,8.8-3.18,10.26-11l.06-.29C2499.93,193.83,2515.09,177.48,2539.46,177.48Zm15.85,160.94h-38.69c-17.19,0-19.17-10.94-19.17-19.17,0-32.28,7.26-52.32,25.9-71.49,6.32-6.5,14.11-11.18,21.64-15.7,12-7.21,22.38-13.44,22.38-24.69,0-12-12.26-21.39-27.91-21.39-22.55,0-32.89,16.31-35.48,26.05a46.44,46.44,0,0,1-1.82,7c-1.53,4.71-6.58,8.28-6.58,8.28a19.27,19.27,0,0,1-10.19,2.47h-46.62c-12.18,0-12.18-9.93-12.18-18.7l0-.43c1.4-13.79,6.7-40.2,26.48-62.15C2473.14,126.29,2502,115,2539,115c29.81,0,57.12,7.6,76.9,21.4,22.92,16,35,39.56,35,68.17,0,36.77-27.46,56.46-42.35,66.86-15.93,11.12-34.1,23.4-34.1,47.81C2574.48,333.22,2569.28,338.42,2555.31,338.42Z" transform="translate(0 -111.72)"/><path class="cls-58" d="M3395.61,423.63,2589,423.25A19.27,19.27,0,0,1,2569.7,404V367.26c0-8-2.73-9.26-9.26-9.26h-51.75c-6.53,0-9.26,1.29-9.26,9.26V404a19.27,19.27,0,0,1-19.26,19.25L0,423.47v-8.85l2480.17.13A10.76,10.76,0,0,0,2490.92,404V367.26c0-11.95,5.81-17.76,17.77-17.76h51.75c11.95,0,17.76,5.81,17.76,17.76V404A10.76,10.76,0,0,0,2589,414.75l806.66-.11Z" transform="translate(0 -111.72)"/></g><g class="cls-59"><path class="cls-60" d="M2539.68,177.26c20.42,0,36.41,13.13,36.41,29.89,0,16.06-13.47,24.15-26.5,32-7.07,4.24-14.38,8.63-19.92,14.34-17.13,17.61-23.5,35.38-23.5,65.56,0,7.52,1.48,10.66,10.66,10.66h38.7c9.74,0,10.66-1.88,10.66-10.66,0-28.89,21-43.11,37.74-54.78,18.81-13.14,38.72-30,38.72-59.89,0-59.83-55.72-81.06-103.43-81.06-87.85,0-101.74,66.9-103.91,87.8,0,10,.51,10,3.68,10h46.62c7.46,0,8.8-3.18,10.26-11l.06-.29C2500.15,193.61,2515.31,177.26,2539.68,177.26Zm15.85,160.94h-38.7c-17.18,0-19.16-10.94-19.16-19.17,0-32.28,7.26-52.32,25.9-71.49,6.32-6.5,14.11-11.18,21.64-15.7,12-7.21,22.38-13.44,22.38-24.69,0-12-12.26-21.39-27.91-21.39-22.55,0-32.89,16.31-35.48,26.05a46.44,46.44,0,0,1-1.82,7c-1.53,4.71-6.58,8.28-6.58,8.28a19.26,19.26,0,0,1-10.19,2.48H2439c-12.18,0-12.18-9.94-12.18-18.71l0-.43c1.4-13.79,6.7-40.2,26.48-62.15,20.05-22.23,49-33.51,85.91-33.51,29.81,0,57.12,7.6,76.9,21.4,22.92,16,35,39.56,35,68.17,0,36.78-27.46,56.47-42.35,66.86-15.93,11.12-34.1,23.4-34.1,47.81C2574.7,333,2569.5,338.2,2555.53,338.2Z" transform="translate(0 -111.72)"/><path class="cls-60" d="M3395.61,423.42,2589.17,423a19.27,19.27,0,0,1-19.25-19.25V367c0-8-2.73-9.26-9.26-9.26h-51.75c-6.53,0-9.26,1.29-9.26,9.26v36.74A19.27,19.27,0,0,1,2480.39,423L0,423.24v-8.83l2480.39.12a10.76,10.76,0,0,0,10.75-10.75V367c0-12,5.81-17.76,17.77-17.76h51.75c12,0,17.76,5.81,17.76,17.76v36.74a10.76,10.76,0,0,0,10.75,10.75l806.44-.11Z" transform="translate(0 -111.72)"/></g><g class="cls-61"><path class="cls-62" d="M2539.9,177c20.42,0,36.41,13.13,36.41,29.89,0,16.06-13.47,24.15-26.5,32-7.07,4.24-14.38,8.63-19.92,14.34-17.13,17.61-23.5,35.38-23.5,65.56,0,7.52,1.48,10.66,10.66,10.66h38.7c9.74,0,10.66-1.88,10.66-10.66,0-28.89,21-43.11,37.74-54.78,18.81-13.14,38.72-30,38.72-59.89,0-59.83-55.72-81.06-103.43-81.06-87.85,0-101.74,66.9-103.91,87.8,0,10,.51,10,3.68,10h46.62c7.46,0,8.8-3.18,10.26-11l.06-.29C2500.37,193.39,2515.53,177,2539.9,177ZM2555.75,338h-38.7c-17.18,0-19.16-10.94-19.16-19.17,0-32.28,7.26-52.32,25.9-71.49,6.32-6.5,14.11-11.18,21.64-15.7,12-7.21,22.38-13.44,22.38-24.69,0-12-12.26-21.39-27.91-21.39-22.55,0-32.89,16.31-35.48,26.05a46.44,46.44,0,0,1-1.82,7c-1.53,4.71-6.58,8.28-6.58,8.28a19.29,19.29,0,0,1-10.19,2.48h-46.62c-12.18,0-12.18-9.94-12.18-18.71l0-.43c1.4-13.79,6.7-40.2,26.48-62.15,20-22.23,48.95-33.51,85.91-33.51,29.81,0,57.12,7.6,76.9,21.4,22.92,16,35,39.56,35,68.17,0,36.78-27.47,56.47-42.35,66.86-15.93,11.12-34.1,23.4-34.1,47.81C2574.92,332.78,2569.72,338,2555.75,338Z" transform="translate(0 -111.72)"/><path class="cls-62" d="M3395.61,423.21l-806.22-.4a19.26,19.26,0,0,1-19.25-19.25V366.82c0-8-2.73-9.26-9.26-9.26h-51.75c-6.53,0-9.27,1.29-9.27,9.26v36.74a19.26,19.26,0,0,1-19.25,19.25L0,423V414.2l2480.61.11a10.76,10.76,0,0,0,10.75-10.75V366.82c0-11.95,5.81-17.76,17.77-17.76h51.75c11.95,0,17.76,5.81,17.76,17.76v36.74a10.76,10.76,0,0,0,10.75,10.75l806.22-.12Z" transform="translate(0 -111.72)"/></g><g class="cls-63"><path class="cls-64" d="M2540.12,176.82c20.42,0,36.41,13.13,36.41,29.89,0,16.06-13.47,24.15-26.5,32-7.07,4.24-14.38,8.63-19.92,14.34-17.13,17.61-23.5,35.38-23.5,65.56,0,7.52,1.48,10.67,10.66,10.67H2556c9.74,0,10.66-1.89,10.66-10.67,0-28.89,21-43.11,37.74-54.78,18.81-13.14,38.72-30,38.72-59.89,0-59.83-55.72-81.06-103.44-81.06-87.84,0-101.73,66.91-103.9,87.8,0,10,.51,10,3.68,10h46.62c7.46,0,8.8-3.18,10.26-11l.06-.29C2500.59,193.17,2515.75,176.82,2540.12,176.82ZM2556,337.76h-38.7c-17.18,0-19.17-10.94-19.17-19.17,0-32.28,7.27-52.32,25.91-71.49,6.32-6.5,14.11-11.18,21.64-15.7,12-7.21,22.38-13.44,22.38-24.69,0-12-12.26-21.39-27.91-21.39-22.56,0-32.89,16.31-35.48,26.05a45.56,45.56,0,0,1-1.83,7c-1.52,4.71-6.57,8.28-6.57,8.28a19.29,19.29,0,0,1-10.19,2.48h-46.62c-12.18,0-12.18-9.94-12.18-18.71l0-.43c1.4-13.79,6.7-40.2,26.48-62.15,20.05-22.23,48.95-33.51,85.9-33.51,29.82,0,57.13,7.6,76.9,21.4,22.92,16,35,39.56,35,68.17,0,36.78-27.47,56.47-42.35,66.86-15.93,11.12-34.1,23.4-34.1,47.81C2575.14,332.56,2569.94,337.76,2556,337.76Z" transform="translate(0 -111.72)"/><path class="cls-64" d="M3395.61,423l-806-.41a19.27,19.27,0,0,1-19.25-19.26V366.6c0-8-2.73-9.26-9.26-9.26h-51.75c-6.54,0-9.27,1.29-9.27,9.26v36.74a19.27,19.27,0,0,1-19.25,19.26L0,422.77V414l2480.83.09a10.76,10.76,0,0,0,10.75-10.75V366.6c0-12,5.81-17.76,17.77-17.76h51.75c12,0,17.76,5.81,17.76,17.76v36.74a10.76,10.76,0,0,0,10.75,10.75l806-.13Z" transform="translate(0 -111.72)"/></g><g class="cls-65"><path class="cls-66" d="M2540.34,176.6c20.42,0,36.41,13.13,36.41,29.9,0,16.05-13.47,24.14-26.5,32-7.07,4.24-14.38,8.64-19.92,14.34-17.13,17.61-23.5,35.38-23.5,65.56,0,7.52,1.48,10.67,10.66,10.67h38.7c9.74,0,10.66-1.89,10.66-10.67,0-28.89,21-43.11,37.74-54.78,18.81-13.14,38.71-30,38.71-59.89,0-59.83-55.71-81.06-103.43-81.06-87.84,0-101.73,66.91-103.9,87.8,0,10,.51,10,3.68,10h46.61c7.47,0,8.81-3.18,10.27-11l.06-.29C2500.8,193,2516,176.6,2540.34,176.6Zm15.85,160.94h-38.7c-17.18,0-19.17-10.94-19.17-19.17,0-32.28,7.27-52.32,25.91-71.49,6.32-6.5,14.11-11.17,21.64-15.7,12-7.21,22.38-13.44,22.38-24.68,0-12-12.26-21.4-27.91-21.4-22.56,0-32.89,16.31-35.48,26.05a45.56,45.56,0,0,1-1.83,7c-1.52,4.71-6.57,8.28-6.57,8.28a19.3,19.3,0,0,1-10.2,2.48h-46.61c-12.18,0-12.18-9.94-12.18-18.71l0-.43c1.4-13.79,6.7-40.2,26.48-62.15,20.05-22.23,49-33.51,85.9-33.51,29.82,0,57.13,7.6,76.9,21.4,22.92,16,35,39.56,35,68.17,0,36.78-27.47,56.47-42.35,66.86-15.93,11.12-34.11,23.4-34.11,47.81C2575.35,332.34,2570.16,337.54,2556.19,337.54Z" transform="translate(0 -111.72)"/><path class="cls-66" d="M3395.61,422.8l-805.78-.42a19.27,19.27,0,0,1-19.25-19.26V366.38c0-8-2.73-9.26-9.26-9.26h-51.75c-6.54,0-9.27,1.29-9.27,9.26v36.74a19.27,19.27,0,0,1-19.25,19.26L0,422.54v-8.75l2481.05.08a10.76,10.76,0,0,0,10.75-10.75V366.38c0-11.95,5.81-17.76,17.77-17.76h51.75c11.95,0,17.76,5.81,17.76,17.76v36.74a10.76,10.76,0,0,0,10.75,10.75l805.78-.13Z" transform="translate(0 -111.72)"/></g><g class="cls-67"><path class="cls-68" d="M2540.56,176.38c20.42,0,36.41,13.13,36.41,29.9,0,16.05-13.47,24.15-26.5,32-7.07,4.25-14.38,8.64-19.92,14.34-17.13,17.61-23.5,35.38-23.5,65.56,0,7.52,1.48,10.67,10.66,10.67h38.7c9.74,0,10.66-1.89,10.66-10.67,0-28.89,21-43.11,37.74-54.78,18.81-13.13,38.71-30,38.71-59.89,0-59.83-55.71-81.06-103.43-81.06-87.84,0-101.73,66.91-103.9,87.8,0,10,.51,10,3.68,10h46.61c7.47,0,8.81-3.18,10.27-11l.06-.29C2501,192.73,2516.18,176.38,2540.56,176.38Zm15.85,160.94h-38.7c-17.18,0-19.17-10.94-19.17-19.17,0-32.28,7.27-52.32,25.91-71.49,6.32-6.5,14.11-11.17,21.64-15.7,12-7.21,22.37-13.44,22.37-24.68,0-12-12.25-21.39-27.9-21.39-22.56,0-32.89,16.3-35.48,26.05a47,47,0,0,1-1.83,7c-1.52,4.71-6.57,8.28-6.57,8.28a19.33,19.33,0,0,1-10.2,2.48h-46.61c-12.19,0-12.19-9.94-12.19-18.71l0-.43c1.4-13.79,6.7-40.2,26.48-62.14,20-22.24,48.95-33.52,85.9-33.52,29.82,0,57.13,7.6,76.9,21.4,22.92,16,35,39.56,35,68.17,0,36.78-27.47,56.47-42.35,66.86-15.93,11.12-34.11,23.4-34.11,47.81C2575.57,332.12,2570.38,337.32,2556.41,337.32Z" transform="translate(0 -111.72)"/><path class="cls-68" d="M3395.61,422.6l-805.56-.44a19.27,19.27,0,0,1-19.25-19.26V366.16c0-8-2.73-9.26-9.27-9.26h-51.75c-6.53,0-9.26,1.29-9.26,9.26V402.9a19.27,19.27,0,0,1-19.25,19.26L0,422.31v-8.72l2481.27.06A10.76,10.76,0,0,0,2492,402.9V366.16c0-12,5.81-17.76,17.76-17.76h51.75c12,0,17.77,5.81,17.77,17.76V402.9a10.76,10.76,0,0,0,10.75,10.75l805.56-.14Z" transform="translate(0 -111.72)"/></g><g class="cls-69"><path class="cls-70" d="M2540.78,176.16c20.41,0,36.41,13.13,36.41,29.9,0,16.05-13.47,24.15-26.5,32-7.07,4.25-14.38,8.64-19.92,14.34-17.13,17.61-23.5,35.38-23.5,65.56,0,7.52,1.48,10.67,10.66,10.67h38.69c9.75,0,10.67-1.89,10.67-10.67,0-28.89,21-43.11,37.74-54.78,18.81-13.13,38.71-30,38.71-59.89,0-59.83-55.71-81.06-103.43-81.06-87.84,0-101.74,66.91-103.9,87.8,0,10,.51,10,3.67,10h46.62c7.47,0,8.81-3.17,10.27-11l.06-.29C2501.24,192.51,2516.4,176.16,2540.78,176.16Zm15.84,160.94h-38.69c-17.18,0-19.17-10.94-19.17-19.17,0-32.28,7.27-52.32,25.91-71.49,6.32-6.49,14.11-11.17,21.64-15.7,12-7.21,22.37-13.44,22.37-24.68,0-12-12.25-21.39-27.9-21.39-22.56,0-32.89,16.3-35.48,26.05a47,47,0,0,1-1.83,7c-1.52,4.71-6.57,8.28-6.57,8.28a19.33,19.33,0,0,1-10.2,2.48h-46.62c-12.18,0-12.18-9.94-12.18-18.71l0-.43c1.4-13.79,6.7-40.2,26.48-62.14,20.05-22.24,49-33.51,85.9-33.51,29.82,0,57.13,7.59,76.9,21.39,22.92,16,35,39.56,35,68.17,0,36.78-27.47,56.47-42.35,66.86-15.93,11.12-34.11,23.4-34.11,47.81C2575.79,331.91,2570.6,337.1,2556.62,337.1Z" transform="translate(0 -111.72)"/><path class="cls-70" d="M3395.61,422.39l-805.34-.45A19.27,19.27,0,0,1,2571,402.68V365.94c0-8-2.73-9.26-9.27-9.26H2510c-6.53,0-9.26,1.29-9.26,9.26v36.74a19.27,19.27,0,0,1-19.25,19.26L0,422.07v-8.69l2481.49.05a10.76,10.76,0,0,0,10.75-10.75V365.94c0-11.95,5.81-17.76,17.76-17.76h51.75c12,0,17.77,5.81,17.77,17.76v36.74a10.76,10.76,0,0,0,10.75,10.75l805.34-.15Z" transform="translate(0 -111.72)"/></g><g class="cls-71"><path class="cls-72" d="M2541,175.94c20.41,0,36.41,13.13,36.41,29.9,0,16-13.47,24.15-26.5,32-7.07,4.25-14.38,8.64-19.92,14.34-17.13,17.61-23.5,35.38-23.5,65.56,0,7.52,1.48,10.67,10.66,10.67h38.69c9.75,0,10.67-1.89,10.67-10.67,0-28.89,21-43.11,37.74-54.78,18.81-13.13,38.71-30,38.71-59.89,0-59.83-55.71-81.06-103.43-81.06-87.84,0-101.74,66.91-103.9,87.8,0,10,.51,10,3.67,10h46.62c7.47,0,8.81-3.17,10.27-11l.06-.29C2501.46,192.29,2516.62,175.94,2541,175.94Zm15.84,160.94h-38.69c-17.18,0-19.17-10.94-19.17-19.17,0-32.27,7.27-52.32,25.91-71.49,6.32-6.49,14.11-11.17,21.64-15.7,12-7.21,22.37-13.44,22.37-24.68,0-12-12.25-21.39-27.9-21.39-22.56,0-32.89,16.3-35.48,26.05a47.39,47.39,0,0,1-1.83,7c-1.52,4.7-6.58,8.27-6.58,8.27a19.26,19.26,0,0,1-10.19,2.48H2440.3c-12.18,0-12.18-9.94-12.18-18.71l0-.43c1.39-13.79,6.7-40.2,26.48-62.14,20-22.24,48.95-33.51,85.9-33.51,29.82,0,57.13,7.59,76.9,21.39,22.92,16,35,39.56,35,68.17,0,36.78-27.47,56.47-42.35,66.86C2594.19,281,2576,293.3,2576,317.71,2576,331.69,2570.82,336.88,2556.84,336.88Z" transform="translate(0 -111.72)"/><path class="cls-72" d="M3395.61,422.18l-805.12-.46a19.27,19.27,0,0,1-19.25-19.25V365.72c0-8-2.73-9.26-9.27-9.26h-51.75c-6.53,0-9.26,1.29-9.26,9.26v36.75a19.27,19.27,0,0,1-19.25,19.25L0,421.84v-8.67l2481.71,0a10.76,10.76,0,0,0,10.75-10.74V365.72c0-12,5.81-17.76,17.76-17.76H2562c12,0,17.77,5.81,17.77,17.76v36.75a10.76,10.76,0,0,0,10.75,10.74l805.12-.15Z" transform="translate(0 -111.72)"/></g><g class="cls-73"><path class="cls-74" d="M2541.22,175.72c20.41,0,36.41,13.13,36.41,29.9,0,16-13.47,24.15-26.5,32-7.07,4.25-14.38,8.64-19.92,14.34-17.13,17.61-23.5,35.38-23.5,65.56,0,7.52,1.48,10.67,10.66,10.67h38.69c9.75,0,10.67-1.89,10.67-10.67,0-28.89,21-43.11,37.74-54.78,18.81-13.13,38.71-30,38.71-59.89,0-59.83-55.72-81.06-103.43-81.06-87.84,0-101.74,66.91-103.9,87.8,0,10,.51,10,3.67,10h46.62c7.47,0,8.81-3.17,10.27-11l.06-.29C2501.68,192.07,2516.84,175.72,2541.22,175.72Zm15.84,160.94h-38.69c-17.18,0-19.17-10.94-19.17-19.17,0-32.27,7.27-52.32,25.91-71.49,6.31-6.49,14.1-11.17,21.64-15.7,12-7.21,22.37-13.44,22.37-24.68,0-12-12.25-21.39-27.9-21.39-22.56,0-32.89,16.3-35.48,26.05a47.39,47.39,0,0,1-1.83,7c-1.52,4.7-6.58,8.28-6.58,8.28a19.36,19.36,0,0,1-10.19,2.47h-46.62c-12.18,0-12.18-9.94-12.18-18.71l0-.43c1.4-13.79,6.7-40.2,26.49-62.14,20.05-22.24,49-33.51,85.9-33.51,29.82,0,57.13,7.59,76.9,21.39,22.92,16,35,39.56,35,68.17,0,36.78-27.47,56.47-42.35,66.86-15.93,11.12-34.11,23.4-34.11,47.81C2576.23,331.47,2571,336.66,2557.06,336.66Z" transform="translate(0 -111.72)"/><path class="cls-74" d="M3395.61,422l-804.9-.48a19.27,19.27,0,0,1-19.25-19.25V365.5c0-8-2.74-9.26-9.27-9.26h-51.75c-6.53,0-9.26,1.29-9.26,9.26v36.75a19.27,19.27,0,0,1-19.25,19.25L0,421.61V413l2481.93,0a10.76,10.76,0,0,0,10.75-10.74V365.5c0-11.95,5.81-17.76,17.76-17.76h51.75c12,0,17.77,5.81,17.77,17.76v36.75A10.76,10.76,0,0,0,2590.71,413l804.9-.16Z" transform="translate(0 -111.72)"/></g><g class="cls-75"><path class="cls-76" d="M2541.44,175.5c20.41,0,36.41,13.13,36.41,29.9,0,16.06-13.48,24.15-26.5,32-7.07,4.25-14.38,8.64-19.92,14.34-17.14,17.62-23.5,35.38-23.5,65.56,0,7.52,1.48,10.67,10.66,10.67h38.69c9.75,0,10.67-1.89,10.67-10.67,0-28.89,21-43.11,37.74-54.78,18.81-13.13,38.71-30,38.71-59.89,0-59.83-55.72-81.06-103.43-81.06-87.85,0-101.74,66.91-103.9,87.8,0,10,.51,10,3.67,10h46.62c7.47,0,8.81-3.18,10.27-11l.06-.29C2501.9,191.85,2517.06,175.5,2541.44,175.5Zm15.84,160.94h-38.69c-17.18,0-19.17-10.94-19.17-19.17,0-32.27,7.27-52.32,25.91-71.49,6.31-6.49,14.1-11.17,21.64-15.7,12-7.21,22.37-13.44,22.37-24.68,0-12-12.26-21.39-27.9-21.39-22.56,0-32.89,16.3-35.48,26.05a47.39,47.39,0,0,1-1.83,7c-1.52,4.7-6.58,8.28-6.58,8.28a19.36,19.36,0,0,1-10.19,2.47h-46.62c-12.18,0-12.18-9.94-12.18-18.71l0-.42c1.4-13.8,6.7-40.21,26.49-62.15,20-22.24,48.95-33.51,85.9-33.51,29.82,0,57.13,7.59,76.9,21.39,22.92,16,35,39.56,35,68.17,0,36.78-27.47,56.47-42.35,66.86-15.93,11.12-34.11,23.4-34.11,47.81C2576.45,331.25,2571.26,336.44,2557.28,336.44Z" transform="translate(0 -111.72)"/><path class="cls-76" d="M3395.61,421.77l-804.68-.49A19.28,19.28,0,0,1,2571.67,402V365.28c0-8-2.73-9.26-9.26-9.26h-51.75c-6.53,0-9.26,1.29-9.26,9.26V402a19.28,19.28,0,0,1-19.25,19.25L0,421.37v-8.61H2482.15A10.76,10.76,0,0,0,2492.9,402V365.28c0-11.95,5.81-17.76,17.76-17.76h51.75c12,0,17.77,5.81,17.77,17.76V402a10.76,10.76,0,0,0,10.75,10.74l804.68-.17Z" transform="translate(0 -111.72)"/></g><g class="cls-77"><path class="cls-78" d="M2541.66,175.28c20.41,0,36.41,13.13,36.41,29.9,0,16.06-13.48,24.15-26.5,32-7.07,4.25-14.38,8.64-19.92,14.34-17.14,17.62-23.5,35.38-23.5,65.56,0,7.52,1.48,10.67,10.66,10.67h38.69c9.75,0,10.67-1.89,10.67-10.67,0-28.89,21-43.11,37.74-54.78,18.81-13.13,38.71-30,38.71-59.89,0-59.83-55.72-81.06-103.43-81.06-87.85,0-101.74,66.91-103.9,87.8,0,10,.51,10,3.67,10h46.62c7.47,0,8.81-3.18,10.27-11l.06-.28C2502.12,191.63,2517.28,175.28,2541.66,175.28Zm15.84,160.94h-38.69c-17.18,0-19.17-10.94-19.17-19.17,0-32.27,7.27-52.32,25.91-71.49,6.31-6.49,14.1-11.17,21.64-15.7,12-7.21,22.37-13.44,22.37-24.68,0-12-12.26-21.39-27.9-21.39-22.56,0-32.89,16.3-35.48,26.05a47.39,47.39,0,0,1-1.83,7c-1.52,4.7-6.58,8.28-6.58,8.28a19.36,19.36,0,0,1-10.19,2.47H2441c-12.18,0-12.18-9.94-12.18-18.7l0-.43c1.4-13.8,6.7-40.21,26.49-62.15,20.05-22.24,48.95-33.51,85.9-33.51,29.82,0,57.13,7.59,76.9,21.39,22.92,16,35,39.56,35,68.17,0,36.78-27.47,56.47-42.35,66.86-15.93,11.12-34.11,23.4-34.11,47.81C2576.67,331,2571.48,336.22,2557.5,336.22Z" transform="translate(0 -111.72)"/><path class="cls-78" d="M3395.61,421.57l-804.46-.51a19.28,19.28,0,0,1-19.26-19.25V365.06c0-8-2.73-9.26-9.26-9.26h-51.75c-6.53,0-9.26,1.29-9.26,9.26v36.75a19.28,19.28,0,0,1-19.25,19.25L0,421.14v-8.58H2482.37a10.76,10.76,0,0,0,10.75-10.74V365.06c0-11.95,5.81-17.76,17.76-17.76h51.75c12,0,17.77,5.81,17.77,17.76v36.75a10.76,10.76,0,0,0,10.75,10.74l804.46-.17Z" transform="translate(0 -111.72)"/></g><g class="cls-79"><path class="cls-80" d="M2541.88,175.06c20.41,0,36.41,13.14,36.41,29.9,0,16.06-13.48,24.15-26.5,32-7.07,4.25-14.38,8.64-19.92,14.34-17.14,17.62-23.51,35.39-23.51,65.56,0,7.52,1.49,10.67,10.67,10.67h38.69c9.75,0,10.67-1.88,10.67-10.67,0-28.89,21-43.11,37.74-54.78,18.81-13.13,38.71-30,38.71-59.89,0-59.83-55.72-81.06-103.43-81.06-87.85,0-101.74,66.91-103.9,87.8,0,10,.51,10,3.67,10h46.62c7.47,0,8.8-3.18,10.26-11l.07-.28C2502.34,191.41,2517.5,175.06,2541.88,175.06ZM2557.72,336H2519c-17.18,0-19.17-10.94-19.17-19.17,0-32.27,7.26-52.32,25.91-71.49,6.31-6.49,14.1-11.17,21.64-15.7,12-7.21,22.37-13.44,22.37-24.68,0-12-12.26-21.39-27.9-21.39-22.56,0-32.89,16.3-35.48,26.05a47.39,47.39,0,0,1-1.83,7c-1.52,4.7-6.58,8.28-6.58,8.28a19.36,19.36,0,0,1-10.19,2.47h-46.62c-12.18,0-12.18-9.94-12.18-18.7l0-.43c1.4-13.8,6.7-40.21,26.49-62.15,20-22.24,48.95-33.51,85.9-33.51,29.82,0,57.13,7.6,76.9,21.39,22.92,16,35,39.57,35,68.17,0,36.78-27.47,56.47-42.36,66.86-15.92,11.12-34.1,23.4-34.1,47.81C2576.89,330.81,2571.7,336,2557.72,336Z" transform="translate(0 -111.72)"/><path class="cls-80" d="M3395.61,421.36l-804.24-.52a19.28,19.28,0,0,1-19.26-19.25V364.84c0-8-2.73-9.25-9.26-9.25H2511.1c-6.53,0-9.26,1.28-9.26,9.25v36.75a19.28,19.28,0,0,1-19.25,19.25L0,420.91v-8.56H2482.59a10.77,10.77,0,0,0,10.75-10.75V364.84c0-11.95,5.81-17.76,17.76-17.76h51.75c12,0,17.77,5.81,17.77,17.76v36.75a10.77,10.77,0,0,0,10.75,10.75l804.24-.19Z" transform="translate(0 -111.72)"/></g><g class="cls-81"><path class="cls-82" d="M2542.09,174.84c20.42,0,36.42,13.14,36.42,29.9,0,16.06-13.48,24.15-26.5,32-7.07,4.25-14.38,8.64-19.92,14.34-17.14,17.62-23.51,35.39-23.51,65.56,0,7.53,1.49,10.67,10.67,10.67h38.69c9.75,0,10.67-1.88,10.67-10.67,0-28.89,21-43.11,37.74-54.78,18.81-13.13,38.71-30,38.71-59.89,0-59.83-55.72-81.06-103.43-81.06-87.85,0-101.74,66.91-103.91,87.8,0,10,.52,10,3.68,10H2488c7.47,0,8.8-3.18,10.26-11l.07-.28C2502.56,191.19,2517.72,174.84,2542.09,174.84Zm15.85,160.94h-38.69c-17.18,0-19.17-10.94-19.17-19.17,0-32.27,7.26-52.32,25.91-71.49,6.31-6.49,14.1-11.17,21.64-15.7,12-7.21,22.37-13.44,22.37-24.68,0-12-12.26-21.39-27.91-21.39-22.55,0-32.88,16.31-35.47,26.05a47.08,47.08,0,0,1-1.83,7c-1.52,4.7-6.58,8.28-6.58,8.28a19.36,19.36,0,0,1-10.19,2.47H2441.4c-12.18,0-12.18-9.94-12.18-18.7l0-.43c1.4-13.8,6.7-40.21,26.49-62.15,20.05-22.24,48.95-33.51,85.9-33.51,29.82,0,57.13,7.6,76.9,21.39,22.92,16,35,39.57,35,68.17,0,36.78-27.46,56.47-42.35,66.86-15.92,11.12-34.1,23.4-34.1,47.81C2577.11,330.59,2571.92,335.78,2557.94,335.78Z" transform="translate(0 -111.72)"/><path class="cls-82" d="M3395.61,421.15l-804-.53a19.28,19.28,0,0,1-19.26-19.25V364.63c0-8-2.73-9.26-9.26-9.26h-51.75c-6.53,0-9.26,1.28-9.26,9.26v36.74a19.28,19.28,0,0,1-19.25,19.25L0,420.67v-8.53l2482.81,0a10.77,10.77,0,0,0,10.75-10.75V364.63c0-12,5.81-17.77,17.76-17.77h51.75c12,0,17.77,5.81,17.77,17.77v36.74a10.77,10.77,0,0,0,10.75,10.75l804-.2Z" transform="translate(0 -111.72)"/></g><g class="cls-83"><path class="cls-84" d="M2542.31,174.63c20.42,0,36.41,13.13,36.41,29.89,0,16.06-13.47,24.15-26.49,32-7.07,4.25-14.38,8.64-19.93,14.34-17.13,17.62-23.5,35.39-23.5,65.56,0,7.53,1.49,10.67,10.67,10.67h38.69c9.75,0,10.67-1.88,10.67-10.67,0-28.89,21-43.11,37.74-54.78,18.81-13.13,38.71-30,38.71-59.89,0-59.83-55.72-81.06-103.43-81.06-87.85,0-101.74,66.91-103.91,87.8,0,10,.52,10,3.68,10h46.62c7.47,0,8.8-3.18,10.26-11l.07-.28C2502.78,191,2517.94,174.63,2542.31,174.63Zm15.85,160.93h-38.69c-17.18,0-19.17-10.94-19.17-19.17,0-32.27,7.26-52.32,25.91-71.49,6.31-6.49,14.1-11.17,21.64-15.7,12-7.21,22.37-13.43,22.37-24.68,0-12-12.26-21.39-27.91-21.39-22.55,0-32.89,16.31-35.48,26.05a45.52,45.52,0,0,1-1.82,7c-1.52,4.7-6.58,8.28-6.58,8.28a19.36,19.36,0,0,1-10.19,2.47h-46.62c-12.18,0-12.18-9.94-12.18-18.7l0-.43c1.4-13.79,6.7-40.21,26.49-62.15,20.05-22.24,49-33.51,85.9-33.51,29.82,0,57.13,7.6,76.9,21.39,22.92,16,35,39.57,35,68.17,0,36.78-27.46,56.47-42.35,66.86-15.92,11.12-34.1,23.4-34.1,47.81C2577.33,330.37,2572.13,335.56,2558.16,335.56Z" transform="translate(0 -111.72)"/><path class="cls-84" d="M3395.61,421l-803.81-.55a19.28,19.28,0,0,1-19.25-19.25V364.41c0-8-2.73-9.26-9.26-9.26h-51.75c-6.53,0-9.26,1.28-9.26,9.26v36.74A19.28,19.28,0,0,1,2483,420.4l-2483,0v-8.5l2483,0a10.77,10.77,0,0,0,10.75-10.75V364.41c0-12,5.81-17.77,17.76-17.77h51.75c12,0,17.77,5.81,17.77,17.77v36.74a10.76,10.76,0,0,0,10.74,10.75l803.81-.2Z" transform="translate(0 -111.72)"/></g><g class="cls-85"><path class="cls-86" d="M2542.53,174.41c20.42,0,36.41,13.13,36.41,29.89,0,16.06-13.47,24.15-26.49,32-7.07,4.25-14.38,8.64-19.93,14.34-17.13,17.62-23.5,35.39-23.5,65.56,0,7.53,1.49,10.67,10.67,10.67h38.69c9.75,0,10.67-1.88,10.67-10.67,0-28.89,21-43.11,37.74-54.78,18.8-13.13,38.71-30,38.71-59.89,0-59.83-55.72-81.06-103.43-81.06-87.85,0-101.74,66.91-103.91,87.8,0,10,.52,10,3.68,10h46.62c7.47,0,8.8-3.18,10.26-11l.07-.29C2503,190.75,2518.16,174.41,2542.53,174.41Zm15.85,160.93h-38.69c-17.18,0-19.17-10.94-19.17-19.17,0-32.27,7.26-52.32,25.91-71.49,6.31-6.49,14.1-11.17,21.64-15.7,12-7.21,22.37-13.43,22.37-24.68,0-12-12.26-21.39-27.91-21.39-22.55,0-32.89,16.31-35.48,26.05a45.52,45.52,0,0,1-1.82,7c-1.52,4.7-6.58,8.28-6.58,8.28a19.36,19.36,0,0,1-10.19,2.47h-46.62c-12.18,0-12.18-9.94-12.18-18.7l0-.43c1.4-13.79,6.7-40.21,26.49-62.15,20-22.24,48.95-33.51,85.9-33.51,29.82,0,57.13,7.6,76.9,21.39,22.92,16,35,39.57,35,68.17,0,36.78-27.46,56.47-42.35,66.86-15.92,11.12-34.1,23.4-34.1,47.81C2577.55,330.15,2572.35,335.34,2558.38,335.34Z" transform="translate(0 -111.72)"/><path class="cls-86" d="M3395.61,420.74,2592,420.18a19.28,19.28,0,0,1-19.25-19.25V364.19c0-8-2.73-9.26-9.26-9.26h-51.75c-6.53,0-9.26,1.28-9.26,9.26v36.74a19.28,19.28,0,0,1-19.25,19.25L0,420.21v-8.48l2483.25-.05A10.76,10.76,0,0,0,2494,400.93V364.19c0-12,5.82-17.77,17.77-17.77h51.75c11.95,0,17.77,5.81,17.77,17.77v36.74A10.76,10.76,0,0,0,2592,411.68l803.59-.21Z" transform="translate(0 -111.72)"/></g><path d="M2542.75,174.19c20.42,0,36.41,13.13,36.41,29.89,0,16.06-13.47,24.15-26.5,32-7.06,4.24-14.37,8.63-19.92,14.33-17.13,17.62-23.5,35.39-23.5,65.57,0,7.52,1.49,10.66,10.67,10.66h38.69c9.75,0,10.67-1.88,10.67-10.66,0-28.9,20.92-43.25,37.74-54.79,18.7-13.28,38.71-30,38.71-59.89,0-59.83-55.72-81.06-103.43-81.06-87.85,0-101.74,66.91-103.91,87.8,0,10,.52,10,3.68,10h46.62c7.47,0,8.8-3.18,10.26-11l.07-.29C2503.22,190.54,2518.38,174.19,2542.75,174.19Zm15.85,160.93h-38.69c-17.18,0-19.17-10.94-19.17-19.16,0-32.28,7.26-52.32,25.91-71.5,6.31-6.49,14.1-11.17,21.64-15.69,12-7.22,22.37-13.44,22.37-24.69,0-12-12.26-21.39-27.91-21.39-22.55,0-32.89,16.31-35.48,26.05a46.74,46.74,0,0,1-1.82,7c-1.52,4.71-6.58,8.28-6.58,8.28a19.36,19.36,0,0,1-10.19,2.47h-46.62c-12.18,0-12.18-9.93-12.18-18.7l0-.43c1.4-13.79,6.7-40.21,26.49-62.15,20-22.24,49-33.51,85.9-33.51,29.82,0,57.13,7.6,76.9,21.39,22.92,16,35,39.57,35,68.17,0,36.78-27.55,56.35-42.35,66.86-16,11-34.1,23.4-34.1,47.82C2577.77,329.93,2572.57,335.12,2558.6,335.12Z" transform="translate(0 -111.72)"/><path d="M3395.61,420.54,2592.24,420A19.28,19.28,0,0,1,2573,400.71V364c0-8-2.73-9.26-9.26-9.26H2512c-6.53,0-9.26,1.28-9.26,9.26v36.74A19.28,19.28,0,0,1,2483.47,420H0v-8.44l2483.47-.07a10.76,10.76,0,0,0,10.74-10.75V364c0-12,5.82-17.77,17.77-17.77h51.75c11.95,0,17.77,5.81,17.77,17.77v36.74a10.76,10.76,0,0,0,10.74,10.75l803.37-.22Z" transform="translate(0 -111.72)"/></g><path class="cls-87" d="M2558.6,335.12h-38.69c-17.18,0-19.17-10.94-19.17-19.16,0-32.28,7.26-52.32,25.91-71.5,6.31-6.49,14.1-11.17,21.64-15.69,12-7.22,22.37-13.44,22.37-24.69,0-12-12.26-21.39-27.91-21.39-22.55,0-32.89,16.31-35.48,26.05a46.74,46.74,0,0,1-1.82,7c-1.52,4.71-6.58,8.28-6.58,8.28a19.36,19.36,0,0,1-10.19,2.47h-46.62c-12.18,0-12.18-9.93-12.18-18.7l0-.43c1.4-13.79,6.7-40.21,26.49-62.15,20-22.24,49-33.51,85.9-33.51,29.82,0,57.13,7.6,76.9,21.39,22.92,16,35,39.57,35,68.17,0,36.78-27.55,56.35-42.35,66.86-16,11-34.1,23.4-34.1,47.82C2577.77,329.93,2572.57,335.12,2558.6,335.12Zm-15.85-160.93c20.42,0,36.41,13.13,36.41,29.89,0,16.06-13.47,24.15-26.5,32-7.06,4.24-14.37,8.63-19.92,14.33-17.13,17.62-23.5,35.39-23.5,65.57,0,7.52,1.49,10.66,10.67,10.66h38.69c9.75,0,10.67-1.88,10.67-10.66,0-28.9,20.92-43.25,37.74-54.79,18.7-13.28,38.71-30,38.71-59.89,0-59.83-55.72-81.06-103.43-81.06-87.85,0-101.74,66.91-103.91,87.8,0,10,.52,10,3.68,10h46.62c7.47,0,8.8-3.18,10.26-11l.07-.29C2503.22,190.54,2518.38,174.19,2542.75,174.19Z" transform="translate(0 -111.72)"/><path class="cls-87" d="M3395.61,420.54,2592.24,420A19.28,19.28,0,0,1,2573,400.71V364c0-8-2.73-9.26-9.26-9.26H2512c-6.53,0-9.26,1.28-9.26,9.26v36.74A19.28,19.28,0,0,1,2483.47,420H0v-8.44l2483.47-.07a10.76,10.76,0,0,0,10.74-10.75V364c0-12,5.82-17.77,17.77-17.77h51.75c11.95,0,17.77,5.81,17.77,17.77v36.74a10.76,10.76,0,0,0,10.74,10.75l803.37-.22Z" transform="translate(0 -111.72)"/></g></g></g></svg>