<svg id="Layer_1" data-name="Layer 1" xmlns="http://www.w3.org/2000/svg" viewBox="0 0 145.96 136.63"><defs><style>.cls-1{fill:#1d1d1b;}.cls-2{fill:#fff;}.cls-3{fill:#ffc30f;}.cls-4{fill:none;stroke:#000;stroke-linecap:round;stroke-linejoin:round;stroke-width:2px;}</style></defs><rect class="cls-3" x="95.02" y="18.37" width="14.93" height="9.96" transform="translate(22.71 90.73) rotate(-63.96)"/><rect class="cls-3" x="66.11" y="15.88" width="9.96" height="14.93" transform="translate(-16.84 19.12) rotate(-26.04)"/><path class="cls-2" d="M103.16,55.48H70.42a16.37,16.37,0,1,1,32.74,0Z" transform="translate(-13.81 -14.45)"/><path class="cls-3" d="M86.79,55.48c-5.35,11-16.08,32.5-34.05,39.83a34.47,34.47,0,0,0,68.1,0C102.87,88,92.14,66.48,86.79,55.48Z" transform="translate(-13.81 -14.45)"/><g id="Globe"><circle class="cls-4" cx="72.98" cy="78.5" r="30.26"/><ellipse class="cls-4" cx="72.98" cy="78.5" rx="16.4" ry="30.26"/><path class="cls-4" d="M64.32,113.23c5-4.55,13.23-7.51,22.47-7.51s17.42,3,22.46,7.51" transform="translate(-13.81 -14.45)"/><path class="cls-4" d="M64.32,72.68c5,4.55,13.23,7.51,22.47,7.51s17.42-3,22.46-7.51" transform="translate(-13.81 -14.45)"/><line class="cls-4" x1="42.71" y1="78.5" x2="103.24" y2="78.5"/><line class="cls-4" x1="72.98" y1="108.76" x2="72.98" y2="48.24"/></g><path class="cls-2" d="M133.6,55.48H86.79c6.51,13.4,21,42.37,46.81,42.37a21.19,21.19,0,0,0,0-42.37Z" transform="translate(-13.81 -14.45)"/><path class="cls-2" d="M40,55.48a21.19,21.19,0,1,0,0,42.37c25.81,0,40.3-29,46.81-42.37Z" transform="translate(-13.81 -14.45)"/><rect class="cls-3" x="68" y="121.82" width="9.97" height="14.81"/><rect class="cls-3" x="108.74" y="129.06" width="9.96" height="14.81" transform="translate(-66.8 60.68) rotate(-30)"/><rect class="cls-3" x="32.74" y="111.76" width="14.81" height="9.96" transform="translate(-66.81 21.26) rotate(-30)"/><rect class="cls-3" x="128.45" y="109.34" width="9.96" height="14.81" transform="translate(-48.2 159.47) rotate(-60)"/><rect class="cls-3" x="52.46" y="131.48" width="14.81" height="9.96" transform="translate(-102.06 105.61) rotate(-60)"/><path class="cls-1" d="M133.6,50.5H107.53a21.32,21.32,0,0,0-41.48,0H40a26.17,26.17,0,1,0,0,52.33,38.36,38.36,0,0,0,9.16-1.13,39.43,39.43,0,0,0,75.3,0,37.8,37.8,0,0,0,9.16,1.14,26.17,26.17,0,1,0,0-52.33ZM86.79,44.09A11.41,11.41,0,0,1,97,50.5H76.55A11.41,11.41,0,0,1,86.79,44.09Zm-63,32.57A16.22,16.22,0,0,1,40,60.46H78.72c-7,13.27-19.55,32.4-38.74,32.4A16.22,16.22,0,0,1,23.77,76.66Zm63,42.78A29.53,29.53,0,0,1,58.45,98.08C71.86,90.89,81.09,77,86.79,66.47c5.7,10.48,14.93,24.41,28.33,31.61A29.53,29.53,0,0,1,86.79,119.44ZM133.6,92.86c-19.19,0-31.74-19.13-38.74-32.4H133.6a16.2,16.2,0,1,1,0,32.4Z" transform="translate(-13.81 -14.45)"/></svg>